<svg width="291" height="255" viewBox="0 0 291 255" fill="none" xmlns="http://www.w3.org/2000/svg">
<rect width="291" height="255" fill="black"/>
<path d="M264.607 106.403C266.643 108.324 267.715 110.609 268.251 113.184C269.121 117.368 268.931 121.541 268.015 125.677C267.238 129.183 265.104 131.598 261.371 132.787C264.24 138.835 267.045 144.746 270 150.974C267.911 150.974 266.118 150.974 264.326 150.974C261.681 150.972 259.034 150.908 256.392 150.997C255.203 151.037 254.638 150.674 254.228 149.537C252.685 145.259 250.823 141.084 249.478 136.749C248.634 134.029 246.983 133.237 244.255 133.337C244.255 139.12 244.255 144.917 244.255 150.843C239.743 150.843 235.432 150.843 231 150.843C231 134.935 231 119.059 231 103.003C231.984 103.003 232.851 102.996 233.718 103.003C241.355 103.067 248.994 103.05 256.629 103.241C259.548 103.314 262.265 104.336 264.607 106.403ZM247.143 123.535C248.842 123.529 250.545 123.591 252.239 123.5C254.407 123.385 255.217 122.393 255.376 119.893C255.618 116.092 254.915 114.194 252.813 114.021C250.049 113.793 247.251 113.965 244.421 113.965C244.421 117.185 244.421 120.286 244.421 123.536C245.3 123.536 246.053 123.536 247.143 123.535Z" fill="#AEAEAE"/>
<path d="M25.0399 146.089C22.8716 143.004 21.9893 139.593 21.5912 136.043C20.805 129.033 20.6361 122.017 22.1318 115.078C23.8502 107.106 28.3885 103.347 36.5204 103.075C43.1048 102.855 49.6597 103.022 56.0582 104.929C57.2286 105.277 57.7498 105.711 57.6942 107.012C57.5851 109.563 57.6621 112.122 57.6621 114.897C55.3546 114.634 53.2272 114.323 51.0885 114.163C47.7289 113.912 44.3628 113.631 40.9974 113.604C36.8991 113.571 34.8862 115.124 34.5824 119.158C34.1981 124.262 34.1019 129.423 34.3871 134.531C34.631 138.899 39.5101 141.059 43.2727 138.642C44.1692 138.066 44.7825 136.727 45.0727 135.621C45.3784 134.455 45.1412 133.147 45.1412 131.738C44.0096 131.673 43.0187 131.615 41.8791 131.549C41.8791 129.254 41.7812 127.034 41.9497 124.834C41.9906 124.299 42.824 123.589 43.4381 123.375C46.51 122.301 54.2501 121.995 58 122.696C58 131.886 58 141.102 58 150.502C55.038 150.502 52.0778 150.611 49.136 150.427C48.3823 150.38 47.6793 149.416 46.9667 148.856C46.4381 148.441 45.9317 147.997 45.4379 147.585C39.2528 152.683 29.7779 151.983 25.0399 146.089Z" fill="#AEAEAE"/>
<path d="M223.554 128.84C223.554 130.1 223.554 131.19 223.554 132.484C217.32 132.692 211.232 132.896 204.98 133.105C204.98 134.501 204.815 135.826 205.02 137.097C205.304 138.855 206.733 139.284 208.388 139.282C213.85 139.272 219.311 139.282 224.772 139.285C225.427 139.285 226.081 139.285 226.995 139.285C226.995 142.667 227.023 145.943 226.944 149.215C226.938 149.488 226.225 149.955 225.82 149.976C218.513 150.353 211.204 150.681 203.893 150.997C203.302 151.022 202.698 150.9 202.107 150.803C197.482 150.045 197.452 149.826 197.362 145.403C197.122 133.52 196.073 121.719 193.083 110.135C192.858 109.264 193.111 108.046 193.613 107.275C195.215 104.814 197.801 103.562 200.675 103.269C203.76 102.954 206.901 102.952 210.006 103.077C215.627 103.303 221.239 103.724 226.923 104.068C226.923 107.778 226.923 111.172 226.923 114.717C226.367 114.754 225.853 114.817 225.34 114.818C220.178 114.826 215.017 114.825 209.856 114.824C205.332 114.823 204.82 115.324 204.862 119.731C204.866 120.18 204.862 120.629 204.862 121.266C207.874 121.402 210.73 121.542 213.588 121.658C216.465 121.774 219.344 121.892 222.223 121.951C223.214 121.971 223.609 122.296 223.574 123.286C223.509 125.078 223.554 126.874 223.554 128.84Z" fill="#F9F9F9" fill-opacity="0.7"/>
<path d="M95.9467 114.027C93.9546 123.522 92.4741 132.942 92.0307 142.782C89.8056 142.782 87.5803 142.751 85.3564 142.791C83.4084 142.827 80.9947 142.261 79.6496 143.219C78.3743 144.127 78.1988 146.661 77.5767 148.493C76.7273 150.994 76.7424 150.999 74.1253 151C70.8204 151 67.5154 151 64 151C64.2194 150.15 64.3562 149.501 64.5539 148.872C69.0739 134.49 73.6188 120.116 78.0959 105.719C78.5115 104.383 79.1199 103.969 80.4648 104.002C84.3399 104.097 88.219 104.071 92.0956 104.019C93.1033 104.006 93.6168 104.308 93.901 105.327C94.5146 107.526 95.2841 109.681 95.9044 111.879C96.0806 112.503 95.9623 113.213 95.9467 114.027ZM88.1297 126.656C87.5501 124.519 86.9704 122.383 86.3908 120.246C86.2737 120.235 86.1566 120.223 86.0395 120.211C84.8139 124.125 83.5883 128.039 82.3397 132.027C84.841 132.027 87.1425 132.027 89.6002 132.027C89.1038 130.205 88.657 128.564 88.1297 126.656Z" fill="#F9F9F9" fill-opacity="0.7"/>
<path d="M133.439 107C134.685 107.049 135.933 107.143 137.179 107.139C144.08 107.115 150.98 107.067 158.121 107.092C159.443 107.257 160.132 107.725 159.979 108.989C159.796 109.356 159.695 109.639 159.529 110.007C159.356 110.422 159.249 110.753 159.054 111.149C158.916 111.348 158.867 111.482 158.793 111.657C158.767 111.698 158.797 111.789 158.718 111.854C158.578 112.157 158.517 112.395 158.393 112.74C158.305 113.005 158.279 113.164 158.168 113.38C158.078 113.623 158.074 113.808 158.008 114.111C157.928 114.49 157.91 114.751 157.799 115.114C157.773 116.601 157.839 117.987 157.887 119.516C157.881 120.142 157.893 120.625 157.818 121.159C157.677 121.397 157.625 121.584 157.53 121.809C157.488 121.847 157.456 121.955 157.33 121.982C156.564 122.355 155.925 122.7 155.234 123.043C155.182 123.04 155.095 123.096 154.976 123.097C154.558 123.314 154.26 123.53 153.868 123.76C153.641 123.893 153.506 124.013 153.265 124.144C152.979 124.356 152.801 124.556 152.629 124.773C152.637 124.789 152.647 124.755 152.559 124.782C152.409 124.908 152.346 125.008 152.284 125.098C152.285 125.088 152.264 125.089 152.156 125.113C151.806 125.481 151.563 125.823 151.284 126.21C151.249 126.255 151.232 126.366 151.118 126.415C150.59 128.061 150.177 129.658 149.719 131.363C149.659 131.624 149.645 131.777 149.516 131.983C147.958 133.6 146.051 132.77 144.362 132.903C142.41 133.057 141.443 132.038 141.265 130.097C140.885 125.941 138.281 123.092 133.99 122.162C133.735 121.987 133.56 121.878 133.373 121.633C133.273 120.952 133.006 120.364 133.125 119.865C134.011 116.161 133.166 112.752 131.393 109.5C130.824 108.457 130.751 107.641 132.003 107.096C132.16 107.095 132.316 107.095 132.7 107.111C133.097 107.084 133.268 107.042 133.439 107Z" fill="#E72026"/>
<path d="M193 141.276C192.988 142.446 192.976 143.615 192.925 145.076C192.442 147.861 192.3 150.461 191.494 152.83C189.598 158.396 183.623 159.656 179.291 155.687C176.218 152.871 173.95 149.53 172.254 145.751C171.245 143.502 170.237 141.253 169.224 138.891C169.147 138.565 169.075 138.352 169.003 138.138C168.998 137.777 168.992 137.416 169.046 136.813C169.257 136.073 169.409 135.575 169.623 135.045C169.759 134.954 169.806 134.877 169.941 134.736C171.201 134.302 172.33 133.867 173.489 133.543C174.172 133.352 174.902 133.336 175.763 133.262C176.615 133.201 177.315 133.12 178.113 133.084C178.445 132.99 178.679 132.85 178.995 132.722C179.189 132.734 179.297 132.711 179.482 132.726C180.129 132.509 180.694 132.232 181.32 131.953C181.383 131.951 181.491 131.888 181.619 131.892C182.488 131.441 183.23 130.986 184.068 130.492C184.425 130.239 184.686 130.024 185.057 129.795C185.345 129.567 185.524 129.354 185.797 129.088C186.275 128.615 186.66 128.194 187.156 127.745C187.523 127.366 187.778 127.014 188.127 126.603C188.529 126.041 188.837 125.54 189.256 125C189.74 125.176 190.385 125.333 190.445 125.615C191.079 128.601 191.675 131.599 192.17 134.612C192.532 136.819 192.729 139.054 193 141.276Z" fill="#E72026"/>
<path d="M179.997 103.923C179.997 103.923 180.132 103.932 180.207 104.083C180.888 104.488 181.493 104.741 182.175 105.008C182.251 105.021 182.404 105.051 182.42 105.166C182.95 105.747 183.481 106.198 183.974 106.684C185.27 107.962 186.55 109.255 187.857 110.599C187.878 110.655 187.923 110.768 187.902 110.904C188.543 112.835 189.205 114.629 189.866 116.424C189.899 116.895 189.931 117.367 189.954 118.068C189.963 118.358 189.982 118.418 190 118.479C190 118.479 189.933 118.445 189.778 118.476C189.264 119.879 188.906 121.252 188.539 122.616C188.53 122.609 188.552 122.618 188.432 122.628C188.089 123.178 187.865 123.717 187.62 124.337C187.537 124.517 187.448 124.583 187.208 124.629C186.903 124.921 186.72 125.199 186.526 125.474C186.515 125.472 186.499 125.486 186.381 125.499C186.195 125.715 186.128 125.919 186.023 126.189C185.922 126.341 185.841 126.404 185.611 126.438C183.17 127.657 180.965 129.155 178.517 130.029C176.616 130.707 174.411 130.606 172.186 130.856C171.408 130.855 170.785 130.849 170.088 130.757C169.586 130.969 169.159 131.266 168.679 131.64C168.474 131.826 168.32 131.936 168.027 132C167.57 131.345 167.077 130.762 166.968 130.119C166.571 127.788 165.575 126.459 163.629 125.997C163.464 125.894 163.392 125.813 163.287 125.606C162.893 125.28 162.576 124.934 162.206 124.87C160.347 124.552 160.076 123.441 160.017 121.809C159.948 119.879 159.367 117.965 159 115.91C159.045 115.423 159.097 115.069 159.263 114.675C160.206 112.688 161.037 110.741 161.877 108.805C161.886 108.815 161.865 108.794 161.993 108.794C163.125 107.767 164.13 106.74 165.133 105.713C165.133 105.714 165.131 105.715 165.267 105.721C167.01 104.963 168.617 104.2 170.348 103.403C170.73 103.345 170.988 103.322 171.333 103.39C172.686 103.323 173.952 103.166 175.347 103C175.731 103.021 175.987 103.049 176.284 103.182C176.795 103.291 177.266 103.297 177.85 103.314C178.111 103.358 178.258 103.391 178.455 103.537C179.003 103.741 179.5 103.832 179.997 103.923ZM177.25 124.569C177.217 124.028 177.184 123.486 177.065 122.73C177.031 122.58 176.998 122.431 177.06 122.099C177.079 122.033 177.097 121.967 177.265 121.728C176.9 121.352 176.535 120.975 176.05 120.586C176.05 120.586 175.94 120.537 175.874 120.27C174.056 119.413 172.628 119.654 171.975 120.885C171.975 120.885 172.016 120.916 171.751 120.927C169.834 122.897 170.02 124.492 172.356 125.666C173.694 126.823 175.426 126.71 176.551 125.347C176.715 125.132 176.88 124.917 177.25 124.569ZM183.838 119.145C183.838 119.145 183.82 119.128 184.105 119.119C185.185 118.13 185.308 115.164 184.096 114.594C183.088 114.12 181.895 112.59 180.45 114.345C180.45 114.345 180.297 114.348 180.124 114.377C180.012 114.424 179.932 114.501 179.696 114.724C179.404 114.937 179.111 115.15 178.555 115.403C177.537 116.598 177.583 118.494 178.654 119.489C179.909 120.655 181.457 120.802 182.611 119.799C182.738 119.785 182.865 119.771 183.251 119.79C183.442 119.57 183.632 119.351 183.838 119.145ZM175.913 113.172C176.219 112.908 176.644 112.7 176.808 112.372C177.413 111.157 177.513 109.865 176.401 108.905C175.226 107.891 173.818 107.814 172.452 108.684C171.221 109.469 170.982 110.603 171.482 111.838C172.059 113.262 173.265 113.745 174.8 113.517C175.09 113.473 175.366 113.346 175.913 113.172ZM164.461 117.224C164.632 118.823 165.586 119.732 167.225 119.843C168.482 119.927 169.584 119.538 170.116 118.284C170.838 116.585 170.192 115.13 168.472 114.585C166.44 113.94 165.003 114.79 164.461 117.224Z" fill="#E91F26"/>
<path d="M124 137.93C123.425 137.582 122.851 137.233 122.466 137C121.901 138.419 121.345 139.942 120.693 141.423C119.459 144.229 118.49 147.223 116.828 149.752C114.392 153.46 112.365 157.835 107.284 158.79C101.727 159.834 97.4243 156.956 96.7007 150.84C96.3622 147.979 95.8056 145.056 96.0683 142.229C96.6015 136.49 97.5837 130.79 98.48 125.089C98.6656 123.909 99.3476 122.955 100.859 123.756C100.988 123.825 101.353 123.444 101.705 123.126C101.867 122.973 101.932 122.966 102.019 123.069C102.271 123.57 102.501 123.961 102.732 124.471C103.049 124.915 103.364 125.241 103.717 125.664C103.993 126.01 104.231 126.258 104.502 126.607C104.751 126.882 104.968 127.054 105.187 127.223C105.19 127.22 105.183 127.225 105.215 127.328C105.469 127.593 105.691 127.756 105.973 128.009C106.333 128.289 106.633 128.479 106.986 128.773C107.377 129.028 107.714 129.179 108.156 129.392C108.721 129.599 109.18 129.744 109.711 129.995C112.546 131.405 115.407 131.517 118.486 130.803C119.596 131.038 120.555 131.273 121.529 131.646C122.362 133.833 123.181 135.882 124 137.93ZM97.7037 151.609C98.6771 154.573 99.9668 157.188 103.407 157.993C107.122 158.861 109.836 157.232 112.153 154.641C116.411 149.88 119.047 144.195 121.053 138.201C121.994 135.386 119.805 132.761 116.917 132.965C110.35 133.429 105.057 131.082 101.141 125.692C100.791 125.21 100.232 124.882 99.7694 124.482C99.4717 125.024 99.0053 125.535 98.9042 126.111C98.3622 129.201 97.8082 132.295 97.4516 135.409C96.8441 140.714 96.4352 146.035 97.7037 151.609Z" fill="#3D0405"/>
<path d="M162.7 145.001C163.089 145.001 163.287 145 163.486 145C168.968 144.996 171.607 148.826 168.969 153.169C168.491 153.956 167.238 154.717 166.227 154.857C164.299 155.124 162.287 154.935 160.012 154.935C160.012 151.804 159.947 148.766 160.121 145.739C160.137 145.459 161.678 145.245 162.7 145.001ZM163.253 152.221C165.203 153.129 166.188 152.815 166.407 151.115C166.523 150.212 166.414 149.28 166.338 148.365C166.246 147.256 165.268 147.015 164.344 147.271C163.843 147.41 163.312 148.125 163.235 148.631C163.07 149.708 163.194 150.817 163.253 152.221Z" fill="#E6E6E6"/>
<path d="M147.048 154.673C146.434 154.815 145.946 154.961 145.452 154.984C142.12 155.139 141.12 154.18 141.023 150.686C140.976 148.992 141.014 147.296 141.026 145.601C141.027 145.435 141.115 145.271 141.193 145C141.937 145 142.692 145 143.713 145C143.713 146.585 143.71 148.142 143.714 149.699C143.716 150.224 143.592 150.819 143.785 151.257C144.002 151.749 144.511 152.101 144.894 152.513C145.311 152.081 146.058 151.672 146.088 151.212C146.22 149.19 146.145 147.153 146.145 145.01C147.103 145.01 147.855 145.01 149 145.01C148.873 147.62 148.837 150.214 148.559 152.779C148.487 153.439 147.655 154.009 147.048 154.673Z" fill="#E7E7E7"/>
<path d="M157.145 147.66C157.772 150.099 158.367 152.405 159 154.856C157.793 154.914 156.756 155.519 156.155 153.722C156.037 153.371 154.308 153.238 153.824 153.721C152.612 154.934 152.728 155.098 151 154.749C151.839 151.659 152.597 148.564 153.578 145.575C153.729 145.117 154.912 145.017 155.622 145C155.962 144.992 156.405 145.491 156.631 145.896C156.89 146.361 156.96 146.977 157.145 147.66Z" fill="#E6E6E6"/>
<path d="M159.879 116C160.243 118.015 160.833 120.022 160.903 122.047C160.962 123.759 161.237 124.924 163.123 125.258C163.498 125.325 163.82 125.688 164.097 126.032C163.865 126.142 163.701 126.135 163.538 126.132C163.537 126.136 163.545 126.134 163.461 126.035C162.686 125.767 161.995 125.598 161.15 125.41C160.278 125.412 159.56 125.434 158.7 125.439C157.892 125.766 157.227 126.109 156.555 126.463C156.549 126.473 156.548 126.449 156.419 126.438C155.891 126.793 155.492 127.161 155.109 127.55C155.125 127.571 155.084 127.536 154.963 127.531C154.446 127.909 154.05 128.291 153.573 128.724C153.421 128.943 153.349 129.113 153.179 129.379C151.789 131.787 152.056 133.969 153.657 136.155C154.274 136.867 154.867 137.466 155.536 138.167C156.316 138.574 157.021 138.878 157.772 139.196C157.817 139.21 157.908 139.188 157.98 139.267C158.186 139.388 158.321 139.43 158.579 139.491C158.953 139.521 159.204 139.529 159.528 139.605C159.839 139.627 160.076 139.583 160.449 139.547C160.943 139.523 161.302 139.493 161.797 139.469C162.844 139.007 163.754 138.538 164.737 138.039C164.901 137.953 164.969 137.877 165.099 137.727C165.261 137.565 165.337 137.455 165.501 137.275C165.899 136.709 166.209 136.213 166.642 135.645C167.938 133.629 167.845 131.668 166.83 129.587C166.689 129.219 166.558 128.961 166.399 128.59C166.04 128.174 165.71 127.869 165.382 127.563C165.385 127.562 165.393 127.554 165.35 127.451C165.086 127.059 164.864 126.769 164.641 126.48C166.54 126.925 167.551 128.319 167.954 130.764C168.065 131.438 168.565 132.05 169 132.864C168.053 135.241 167.759 137.835 165.733 139.547C165.62 139.571 165.523 139.622 165.253 139.786C161.449 141.606 157.912 141.281 154.433 139.466C154.011 139.036 153.589 138.606 153.056 137.987C152.363 136.67 151.781 135.541 151.186 134.259C151.104 133.487 151.034 132.87 151 132.108C151.065 131.468 151.096 130.973 151.215 130.393C151.476 129.756 151.649 129.205 151.833 128.658C151.844 128.662 151.839 128.639 151.912 128.61C152.078 128.508 152.11 128.416 152.119 128.212C152.175 128.061 152.194 127.999 152.289 127.903C152.461 127.794 152.5 127.696 152.515 127.487C152.557 127.337 152.569 127.276 152.678 127.161C153.075 126.779 153.374 126.451 153.761 126.097C153.923 125.974 153.996 125.88 154.186 125.732C155.634 125.149 156.931 124.492 158.306 124.116C160.649 123.477 160.731 123.289 160.254 120.882C159.939 119.292 159.991 117.63 159.879 116Z" fill="#AA242B"/>
<path d="M121.577 154.443C121.432 153.822 121.389 153.319 121.319 152.495C122.964 152.495 124.459 152.495 125.954 152.495C125.992 152.257 126.029 152.018 126.066 151.78C125.492 151.635 124.924 151.396 124.342 151.363C121.933 151.224 121.037 150.413 121.001 148.228C120.965 146.071 121.893 145.123 124.267 145.011C125.226 144.966 126.195 145.073 127.159 145.117C128.096 145.159 128.574 145.556 128.553 146.519C128.529 147.633 127.753 147.435 127.036 147.427C126.251 147.419 125.463 147.393 124.685 147.457C124.456 147.476 124.046 147.845 124.079 147.937C124.177 148.207 124.409 148.517 124.675 148.628C124.985 148.758 125.384 148.699 125.745 148.714C127.995 148.812 129.038 149.846 128.999 151.941C128.959 154.044 127.899 155.055 125.589 154.998C124.282 154.965 122.981 154.714 121.577 154.443Z" fill="#E8E9E8"/>
<path d="M124.531 138.819C123.605 136.724 122.756 134.668 122 132.424C122.475 132.137 122.857 132.038 123.278 132.088C123.562 137.169 127.235 140.126 132.357 139.515C136.466 139.026 139.055 135.401 138.444 130.995C137.989 127.707 134.192 125.136 130.606 125.414C127.867 125.626 126.001 127.086 124.189 128.713C124.475 128.055 124.667 127.318 125.141 127.043C126.923 126.014 128.798 125.135 130.805 124.115C130.689 123.791 130.303 123.036 130.182 122.243C130.117 121.815 130.506 121.321 130.695 121C130.441 122.395 131.135 123.163 132.178 123.888C132.603 124.089 132.966 124.188 133.457 124.325C133.85 124.389 134.116 124.416 134.455 124.537C134.843 124.706 135.157 124.779 135.537 124.875C135.603 124.898 135.739 124.929 135.79 125.037C136.876 126.209 138.048 127.178 138.918 128.359C140.563 130.591 139.947 133.109 139.551 135.566C139.513 135.692 139.474 135.818 139.309 136.099C138.653 137.067 138.124 137.88 137.594 138.694C137.427 138.795 137.259 138.895 136.916 139.08C136.397 139.458 136.053 139.751 135.709 140.045C135.582 140.085 135.455 140.125 135.104 140.189C134.322 140.423 133.765 140.633 133.208 140.844C133.208 140.844 133.056 140.85 132.818 140.858C131.698 140.911 130.816 140.956 129.934 141C129.669 140.966 129.405 140.931 128.914 140.803C127.397 140.182 126.107 139.654 124.816 139.126C124.774 139.017 124.705 138.928 124.531 138.819Z" fill="#AD232C"/>
<path d="M114.483 97C116.199 97.0009 117.914 97.0019 119.89 97.0666C123.421 97.6158 124.223 98.4283 123.952 100.982C123.952 100.982 123.98 101.005 123.808 100.999C122.627 100.887 121.622 100.726 120.608 100.687C117.793 100.577 114.974 100.519 112.158 100.437C111.483 100.417 110.313 100.507 110.228 100.329C109.98 99.8108 109.864 99.0207 110.252 98.6343C110.84 98.0495 111.86 97.6671 112.771 97.2946C113.262 97.0936 113.907 97.0917 114.483 97Z" fill="#D82129"/>
<path d="M136.126 145C136.283 144.999 136.441 144.998 136.733 145.166C137.111 145.407 137.354 145.477 137.596 145.548C137.789 145.701 137.982 145.855 138.184 146.243C138.452 147.252 138.711 148.026 138.97 148.8C139.003 149.512 139.036 150.223 138.911 151.126C138.561 152.128 138.369 152.937 138.177 153.747C138.184 153.872 138.137 153.97 137.855 154.063C137.269 154.335 136.866 154.585 136.463 154.834C136.31 154.892 136.157 154.95 135.802 154.91C135.123 154.875 134.648 154.937 134.173 155C134.016 154.997 133.86 154.993 133.549 154.83C133.13 154.624 132.864 154.579 132.599 154.533C132.334 154.356 132.069 154.179 131.787 153.772C131.542 153.009 131.314 152.476 131.087 151.942C131.033 151.633 130.98 151.324 131.008 150.712C131.06 150.023 131.03 149.636 131 149.249C131.004 148.933 131.008 148.617 131.151 148.102C131.323 147.557 131.356 147.212 131.389 146.866C131.655 146.449 131.92 146.031 132.385 145.607C132.775 145.449 132.967 145.299 133.158 145.148C133.304 145.087 133.449 145.025 133.804 145.065C134.718 145.11 135.422 145.055 136.126 145ZM136.422 149.07C136.359 148.041 136.114 147.197 134.88 147.263C133.614 147.332 133.561 148.306 133.528 149.267C133.504 149.968 133.385 150.742 133.618 151.352C133.82 151.878 134.45 152.537 134.908 152.552C135.373 152.567 136.061 151.963 136.284 151.453C136.543 150.861 136.401 150.075 136.422 149.07Z" fill="#E9EAEA"/>
<path d="M165 139C166.87 137.287 167.152 134.812 168.194 132.587C168.37 132.357 168.519 132.248 168.835 132.055C169.389 131.736 169.774 131.499 170.16 131.263C170.765 131.269 171.37 131.275 172.229 131.376C173.805 131.518 175.181 131.819 176.44 131.561C179.83 130.868 183.234 130.053 185.296 126.862C185.392 126.819 185.471 126.755 185.661 126.556C185.87 126.26 185.95 126.08 186.031 125.9C186.031 125.9 186.046 125.885 186.166 125.873C186.47 125.583 186.655 125.305 186.839 125.026C186.952 124.995 187.039 124.929 187.164 124.778C187.229 124.727 187.332 124.751 187.408 124.705C187.533 124.557 187.583 124.454 187.657 124.237C187.796 123.758 187.911 123.393 188.025 123.027C188.025 123.027 188.004 123.019 188.088 123.021C188.171 123.024 188.318 122.993 188.414 123.001C188.574 123.011 188.638 123.012 188.702 123.013C188.817 123.292 188.933 123.571 189 124.075C188.891 124.598 188.83 124.896 188.769 125.194C188.457 125.692 188.144 126.189 187.616 126.758C187.148 127.189 186.894 127.548 186.64 127.907C186.25 128.325 185.86 128.743 185.255 129.211C184.865 129.483 184.69 129.706 184.515 129.928C184.25 130.141 183.986 130.355 183.495 130.602C182.517 131.087 181.764 131.539 181.012 131.992C181.012 131.992 180.902 132.054 180.702 132.033C179.966 132.262 179.429 132.513 178.893 132.763C178.788 132.808 178.679 132.83 178.373 132.785C177.949 132.87 177.719 133.001 177.489 133.133C176.78 133.213 176.071 133.294 175.104 133.26C173.389 133.219 171.908 133.173 170.485 133.433C169.98 133.526 169.616 134.364 169.187 134.862C169.17 134.957 169.123 135.034 168.86 135.158C168.461 135.762 168.249 136.301 168.037 136.841C167.048 137.587 166.059 138.333 165 139Z" fill="#240102"/>
<path d="M169.164 139C170.169 141.279 171.174 143.557 172.18 145.836C173.872 149.665 176.134 153.05 179.199 155.903C183.519 159.925 189.479 158.648 191.369 153.008C192.174 150.608 192.315 147.974 192.821 145.312C192.951 146.595 193.019 148.013 192.995 149.677C192.843 150.33 192.782 150.739 192.722 151.148C192.075 152.731 191.607 154.428 190.737 155.871C189.568 157.811 187.567 158.564 185.417 158.903C182.264 159.401 179.987 157.927 177.766 155.803C173.434 151.662 171.252 146.287 169.07 140.88C168.946 140.574 169.022 140.184 169.032 139.55C169.094 139.177 169.129 139.089 169.164 139Z" fill="#480507"/>
<path d="M154.415 125.147C154.14 125.453 153.865 125.759 153.498 126C153.405 125.783 153.403 125.63 153.358 125.385C153.209 125.116 153.105 124.939 153 124.762C153 124.762 153.02 124.761 153.108 124.747C153.254 124.631 153.314 124.53 153.374 124.429C153.374 124.429 153.364 124.463 153.471 124.453C153.745 124.231 153.913 124.02 154.081 123.808C154.212 123.689 154.342 123.57 154.682 123.447C155.181 123.22 155.471 122.998 155.76 122.775C155.76 122.775 155.845 122.719 156.027 122.736C156.827 122.381 157.445 122.01 158.063 121.638C158.063 121.638 158.093 121.53 158.223 121.481C158.402 121.219 158.452 121.006 158.501 120.793C158.488 120.312 158.476 119.831 158.57 119.104C158.612 117.477 158.55 116.097 158.487 114.716C158.505 114.456 158.523 114.196 158.673 113.793C158.816 113.445 158.828 113.239 158.839 113.033C158.865 112.874 158.89 112.715 159.061 112.404C159.261 112.002 159.315 111.753 159.369 111.503C159.369 111.503 159.34 111.412 159.46 111.313C159.622 111.076 159.664 110.938 159.706 110.8C159.811 110.47 159.915 110.14 160.195 109.707C160.52 109.284 160.67 108.964 160.893 108.638C160.968 108.632 161.118 108.627 161.118 108.627C162.084 107.715 163.01 106.754 164.032 105.91C164.566 105.469 165.268 105.235 165.999 105C166.011 105.259 165.919 105.425 165.827 105.591C165.827 105.591 165.828 105.59 165.713 105.597C164.66 106.604 163.721 107.604 162.782 108.605C162.782 108.605 162.802 108.625 162.687 108.66C161.799 110.597 161.025 112.499 160.251 114.4C160.202 114.747 160.153 115.093 160.111 115.57C160.221 117.222 160.173 118.773 160.463 120.256C160.902 122.502 160.826 122.677 158.673 123.274C157.409 123.624 156.217 124.237 154.807 124.81C154.522 124.95 154.453 125.036 154.415 125.147Z" fill="#2F0204"/>
<path d="M114.266 96.2378C113.832 96.4676 113.242 96.4702 112.792 96.7468C111.958 97.2594 111.024 97.7856 110.485 98.5902C110.129 99.1219 110.236 100.209 110.463 100.922C110.541 101.168 111.612 101.043 112.23 101.07C114.809 101.184 117.39 101.263 119.967 101.414C120.896 101.469 121.816 101.69 122.883 101.83C122.434 102.684 122.635 103.521 123 104.505C122.858 104.678 122.803 104.697 122.684 104.675C122.538 104.568 122.464 104.493 122.338 104.3C121.299 103.8 120.32 103.409 119.226 102.986C118.645 102.842 118.18 102.731 117.596 102.545C116.325 102.518 115.174 102.565 113.895 102.61C113.201 102.765 112.634 102.922 111.948 103.057C111.289 103.326 110.75 103.616 110.12 103.918C109.911 103.964 109.793 103.999 109.561 104.041C109.029 104.361 108.611 104.674 108.104 105.007C107.901 105.073 107.788 105.12 107.564 105.173C107.084 105.542 106.714 105.905 106.311 106.317C106.278 106.365 106.242 106.478 106.171 106.522C106.003 106.637 105.95 106.736 105.927 106.865C105.914 106.867 105.89 106.881 105.778 106.885C105.443 106.926 105.222 106.963 105 107C105.677 104.868 107.4 104.1 109.089 103.384C110.216 102.907 110.676 102.599 109.748 101.267C108.531 99.5219 110.13 96.2293 112.199 96.0171C112.848 95.9506 113.514 96.0893 114.266 96.2378Z" fill="#430507"/>
<path d="M138.363 135C138.612 132.523 139.192 129.955 137.642 127.678C136.823 126.474 135.719 125.486 134.808 124.256C135.083 124.066 135.295 124.021 135.565 123.964C134.547 123.272 134.547 123.272 134.395 124.103C134.099 124.028 133.804 123.953 133.438 123.653C133.245 122.953 133.122 122.476 133 122C137.239 122.934 139.861 126.008 140.244 130.493C140.423 132.588 141.397 133.687 143.362 133.521C145.062 133.378 146.983 134.273 148.626 132.567C148.901 132.632 148.962 132.729 149 132.843C148.071 133.318 147.178 133.916 146.202 134.227C145.518 134.444 144.722 134.267 143.976 134.27C141.054 134.281 141.054 134.281 139.583 131.938C139.219 132.95 138.853 133.961 138.363 135Z" fill="#460506"/>
<path d="M178.574 103.686C178.439 103.651 178.303 103.616 178.006 103.481C177.66 103.312 177.476 103.242 177.263 103.116C177.143 103.089 177.051 103.117 176.861 103.178C176.701 103.247 176.641 103.284 176.581 103.321C176.345 103.291 176.11 103.261 175.671 103.137C174.526 103.079 173.585 103.115 172.608 103.098C172.487 103.095 172.4 103.144 172.241 103.236C172.067 103.338 172.002 103.43 171.975 103.554C171.738 103.578 171.5 103.603 171.021 103.626C169.52 104.084 168.26 104.542 167 105C167.12 104.351 167.239 103.701 167.51 102.911C170.433 102.281 173.205 101.792 176.105 101.333C176.582 101.375 176.931 101.386 177.37 101.488C177.886 101.7 178.313 101.819 178.738 101.947C179.786 102.262 180.367 101.927 180.287 100.521C180.285 100.248 180.266 100.093 180.253 99.8105C179.488 98.8004 178.717 97.917 177.946 97.0335C178.471 97.0622 179.132 96.8779 179.498 97.1566C181.044 98.3341 181.413 100.479 180.529 102.284C180.323 102.704 180.174 103.158 179.867 103.737C179.348 103.813 178.961 103.749 178.574 103.686Z" fill="#340304"/>
<path d="M177.665 97.085C178.557 97.9961 179.339 98.9073 180 99.9309C178.498 99.3041 177.176 98.2813 175.72 97.906C174.285 97.5362 172.709 97.7443 171.203 97.8399C169.229 97.9652 168.065 99.339 167.785 101.901C168.396 101.901 169.006 102.023 169.56 101.877C170.856 101.535 172.107 100.967 173.41 100.684C174.245 100.503 175.445 99.6035 175.775 101.489C172.961 101.993 170.147 102.497 167.201 103C167.069 102.999 167.063 103.015 167.047 102.849C166.715 98.896 168.139 97.1562 171.599 97.0983C173.443 97.0674 175.286 97.0329 177.13 97C177.272 97.0284 177.415 97.0567 177.665 97.085Z" fill="#BE252C"/>
<path d="M131.534 107.246C130.416 107.833 130.486 108.602 131.025 109.585C132.703 112.65 133.502 115.862 132.664 119.353C132.551 119.823 132.804 120.377 132.781 121C132.482 120.397 132.16 119.692 132.125 118.973C132.072 117.884 132.293 116.781 132.233 115.693C132.215 115.371 131.643 115.077 131.277 114.69C131.14 114.444 131.051 114.28 130.956 114C130.828 113.443 130.705 113 130.591 112.443C130.066 111.234 129.533 110.14 129 109.046C129.262 109.075 129.524 109.104 129.817 109.137C130.243 108.396 129.028 106.285 131.534 107.246Z" fill="#430507"/>
<path d="M189.018 124.128C188.967 123.838 189.028 123.506 189.139 123.057C190.805 122.678 190.849 124.275 191.023 125.184C192.08 130.683 193.366 136.166 192.903 142C192.545 139.669 192.345 137.198 191.977 134.757C191.474 131.425 190.87 128.11 190.225 124.808C190.164 124.495 189.51 124.323 189.018 124.128Z" fill="#480507"/>
<path d="M177 96.655C175.069 96.8258 173.103 96.8625 171.137 96.8952C167.449 96.9567 165.93 98.8053 166.28 103C165.211 102.826 164.789 102.132 165.1 100.84C165.723 98.2436 167.084 96.4481 169.543 96.1646C171.634 95.9235 173.76 96.0158 175.87 96.0246C176.236 96.0262 176.601 96.3463 177 96.655Z" fill="#340304"/>
<path d="M134 155.163C134.34 155.037 134.744 154.994 135.218 155.001C135.723 155.353 136.158 155.655 136.592 155.958C136.728 155.897 136.864 155.836 137 155.775C136.951 156.164 136.996 156.854 136.837 156.889C136.294 157.009 135.49 157.084 135.137 156.831C134.621 156.46 134.407 155.79 134 155.163Z" fill="#CECECE"/>
<path d="M101.864 120C100.654 118.42 100.982 116.621 101.267 114.916C101.714 112.24 102.353 109.585 105 108C104.746 108.724 104.382 109.333 103.992 109.997C103.966 110.052 103.94 110.169 103.83 110.223C103.35 111.093 102.98 111.908 102.591 112.796C102.571 112.868 102.561 113.017 102.471 113.113C102.247 113.985 102.114 114.761 101.96 115.683C101.957 116.508 101.976 117.189 101.96 117.996C102.023 118.522 102.12 118.92 102.214 119.428C102.2 119.683 102.189 119.828 102.098 119.974C102.02 119.976 101.864 120 101.864 120Z" fill="#430507"/>
<path d="M155 139C158.231 141.286 161.515 141.729 165 139.347C164.869 142.072 163.184 141.439 162.09 141.71C160.569 142.086 158.932 142.112 157.422 141.696C156.536 141.452 155.802 140.057 155 139Z" fill="#340304"/>
<path d="M187 110C186.052 108.904 185.109 107.802 184.154 106.713C183.791 106.299 183.4 105.916 183.006 105.339C182.996 105.107 183 105.054 183.005 105C184.23 106.208 185.455 107.417 186.709 108.8C186.802 109.042 186.866 109.111 186.931 109.179C186.931 109.179 186.957 109.29 186.971 109.444C186.99 109.732 186.995 109.866 187 110Z" fill="#AA242B"/>
<path d="M123.217 101C123.327 98.533 122.686 97.7471 120 97.2075C121.362 96.7361 122.496 97.0535 123.271 98.3076C123.779 99.1288 124.646 100.087 123.217 101Z" fill="#430507"/>
<path d="M149.528 133C149.333 132.892 149.252 132.794 149.043 132.672C148.963 132.467 148.982 132.301 149.205 131.964C149.964 130.065 150.518 128.335 151.072 126.606C151.072 126.606 151.095 126.485 151.3 126.438C152 126.261 152.495 126.13 152.99 126C152.993 126.166 152.995 126.332 153 126.623C152.988 126.809 152.974 126.871 152.841 127.068C152.625 127.279 152.565 127.371 152.542 127.479C152.519 127.542 152.495 127.605 152.355 127.803C152.155 128.01 152.1 128.095 152.074 128.191C152.074 128.191 152.081 128.214 151.918 128.234C151.564 128.854 151.373 129.455 151.181 130.056C151.143 130.557 151.105 131.059 150.89 131.748C150.562 132.285 150.41 132.635 150.257 132.986C150.063 132.988 149.868 132.991 149.528 133Z" fill="#240102"/>
<path d="M189.937 117C188.841 115.134 187.823 113.114 187 111C187.878 111.604 188.559 112.303 189.24 113.001C189.279 113.293 189.318 113.584 189.408 114.074C189.639 114.587 189.818 114.901 189.997 115.215C190.003 115.759 190.008 116.302 189.937 117Z" fill="#AA242B"/>
<path d="M166.531 104.132C168.026 103.72 169.442 103.345 171 103C169.478 103.688 167.814 104.347 166.008 105C165.969 104.849 166.072 104.702 166.196 104.473C166.278 104.304 166.356 104.23 166.531 104.132Z" fill="#AA242B"/>
<path d="M128.901 108.167C129.65 109.413 130.405 110.656 131 112C129.542 110.455 128.245 108.809 127 107.121C127.052 107.081 127.158 107 127.158 107C127.512 107.223 127.865 107.446 128.365 107.818C128.642 108.033 128.772 108.099 128.902 108.165C128.902 108.165 128.908 108.163 128.901 108.167Z" fill="#AD232C"/>
<path d="M101.001 120.113C100.989 119.995 101.162 119.975 101.374 120.028C102.058 121.04 102.529 122 103 122.96C102.927 122.966 102.855 122.973 102.675 123C102.05 122.091 101.531 121.161 101.001 120.113Z" fill="#AD232C"/>
<path d="M124 138C125.621 138.649 127.251 139.506 129 140.507C126.828 141.759 125.255 140.519 124 138Z" fill="#3D0405"/>
<path d="M151.309 134C151.867 134.964 152.426 135.928 153 137C151.238 136.78 151.304 135.386 151 134.142C151.171 134.013 151.24 134.006 151.309 134Z" fill="#340304"/>
<path d="M189.182 122.966C189.182 122.966 189.061 122.995 189 123C189.224 121.683 189.509 120.361 189.889 119C190.004 119.32 190.025 119.681 189.973 120.252C189.765 120.968 189.628 121.471 189.425 122.052C189.3 122.408 189.241 122.687 189.182 122.966Z" fill="#AA242B"/>
<path d="M103 109C103.415 108.563 103.829 108.126 104.262 107.604C104.503 107.394 104.725 107.269 105.005 107.084C105.333 106.999 105.603 106.974 106 107.031C105.085 107.742 104.042 108.371 103 109Z" fill="#AD232C"/>
<path d="M124 105C125.04 105.639 126.08 106.278 127 107C126.326 106.783 125.772 106.484 125.168 106.124C125.034 105.993 124.935 105.942 124.77 105.828C124.518 105.675 124.316 105.605 124.114 105.528C124.113 105.521 124.122 105.509 124.108 105.423C124.062 105.225 124.031 105.112 124 105Z" fill="#430507"/>
<path d="M160 108.88C159.995 108.995 159.863 109 159.75 109C159.636 109 159.541 108.996 159.541 108.996C159.601 107.932 159.009 107.509 158 107.351C159.092 106.632 159.549 106.957 160 108.88Z" fill="#430507"/>
<path d="M189 112C188.427 111.45 187.9 110.747 187.245 109.985C187.118 109.925 187.065 109.798 187.04 109.733C187.007 109.491 186.999 109.312 187 109C188.99 109.124 188.486 110.786 189 112Z" fill="#480507"/>
<path d="M136 137C136.747 136.341 137.759 135.693 138.97 135C139.116 135.852 138.825 136.695 136 137Z" fill="#460506"/>
<path d="M130 139.748C130.615 139.244 131.249 139.108 132 139.007C131.399 138.758 130.885 145.324 130 139.748Z" fill="#3D0405"/>
<path d="M189 121.754C189.16 121.197 189.32 120.64 189.564 120C190.455 120.839 189.812 121.428 189.132 122C189.015 121.896 189.008 121.825 189 121.754Z" fill="#2F0204"/>
<path d="M126 106C126.57 106.228 127.139 106.456 127.833 106.71C127.957 106.734 127.991 106.838 127.999 106.89C128.008 106.942 127.918 106.996 127.744 107C127.047 106.67 126.524 106.335 126 106Z" fill="#AD232C"/>
<path d="M136 155C136.247 154.641 136.579 154.317 137 154C136.754 154.35 136.42 154.692 136 155Z" fill="#CECECE"/>
<path d="M182 105C181.669 104.743 181.339 104.486 181 104.107C181.077 103.977 181.162 103.969 181.343 104.065C181.551 104.227 181.663 104.284 181.775 104.341C181.775 104.341 181.778 104.331 181.795 104.427C181.875 104.682 181.938 104.841 182 105Z" fill="#AA242B"/>
<path d="M135 139C135.209 138.638 135.545 138.32 136 138C135.788 138.346 135.458 138.695 135 139Z" fill="#460506"/>
<path d="M179 103.064C179.242 102.899 179.516 103.088 179.875 103.237C179.971 103.373 179.982 103.55 180 104C179.682 103.988 179.357 103.703 179 103.064Z" fill="#AA242B"/>
<path d="M190 114C189.614 113.809 189.28 113.475 189 113C189.387 113.192 189.719 113.525 190 114Z" fill="#480507"/>
<path d="M182.667 104.975C182.387 104.691 182.219 104.43 182 104.019C182.245 103.957 182.541 104.045 182.929 104.274C183.01 104.521 183.001 104.626 182.998 104.889C183.004 105.047 182.78 104.997 182.667 104.975Z" fill="#480507"/>
<path d="M247.322 123.985C246.484 123.986 245.799 123.986 245 123.986C245 120.617 245 117.402 245 114.064C247.573 114.064 250.116 113.886 252.628 114.122C254.539 114.302 255.179 116.27 254.959 120.209C254.814 122.801 254.078 123.828 252.107 123.948C250.567 124.042 249.019 123.978 247.322 123.985Z" fill="#0A0A0A"/>
<path d="M89.2271 126.681C89.8309 128.483 90.3847 130.149 91 132C87.9535 132 85.1006 132 82 132C83.5478 127.95 85.067 123.975 86.5862 120C86.7314 120.012 86.8766 120.024 87.0217 120.036C87.7402 122.206 88.4587 124.375 89.2271 126.681Z" fill="#121212"/>
<path d="M131.625 116C131.918 116.298 132.445 116.584 132.461 116.898C132.516 117.957 132.313 119.031 132.361 120.091C132.394 120.791 132.69 121.477 132.976 122.188C133.236 122.307 133.389 122.408 133.611 122.568C133.788 123.032 133.894 123.437 134 123.951C133.784 124.036 133.568 124.013 133.209 123.865C132.762 123.657 132.458 123.574 132.154 123.491C131.356 122.95 130.79 122.284 131.075 120.995C131.196 120.33 131.242 119.87 131.355 119.375C131.502 119.276 131.563 119.195 131.687 119.015C131.729 118.159 131.686 117.387 131.632 116.512C131.622 116.274 131.624 116.137 131.625 116Z" fill="#180002"/>
<path d="M151 127C150.514 128.615 149.844 130.282 149 132C149.489 130.385 150.153 128.718 151 127Z" fill="#460506"/>
<path d="M157 122C156.469 122.321 155.805 122.667 155 123C155.529 122.667 156.198 122.346 157 122Z" fill="#460506"/>
<path d="M153 125.571C152.45 125.772 151.825 125.887 151 126C151.208 125.674 151.615 125.349 152.204 125C152.564 125.145 152.745 125.314 153 125.571Z" fill="#460506"/>
<path d="M155 123C154.801 123.337 154.468 123.676 154 124C154.198 123.657 154.532 123.33 155 123Z" fill="#460506"/>
<path d="M157.933 121C158.143 121.27 157.861 121.626 157.068 122C156.853 121.708 157.148 121.396 157.933 121Z" fill="#460506"/>
<path d="M169 135C169.273 134.432 169.596 133.38 170.044 133.264C171.304 132.938 172.616 132.995 174 133.021C173.455 133.258 172.799 133.277 172.186 133.515C171.145 133.919 170.131 134.46 169 135Z" fill="#480507"/>
<path d="M181 132C181.552 131.664 182.219 131.33 183 131C182.448 131.337 181.781 131.67 181 132Z" fill="#480507"/>
<path d="M179 133C179.545 132.607 180.19 132.289 181 132C180.477 132.378 179.789 132.726 179 133Z" fill="#480507"/>
<path d="M186 128C186.183 127.376 186.513 126.699 187 126C186.82 126.635 186.483 127.291 186 128Z" fill="#480507"/>
<path d="M175.532 112.676C175.118 112.796 174.842 112.911 174.553 112.951C173.022 113.159 171.819 112.718 171.244 111.421C170.745 110.296 170.984 109.263 172.212 108.548C173.574 107.754 174.978 107.824 176.15 108.748C177.259 109.623 177.159 110.8 176.555 111.908C176.393 112.207 175.968 112.396 175.532 112.676Z" fill="#230204"/>
<path d="M165 116.973C165.547 114.453 166.998 113.523 169.048 114.229C170.783 114.826 171.434 116.42 170.706 118.281C170.169 119.654 169.057 120.081 167.789 119.988C166.135 119.867 165.173 118.872 165 116.973Z" fill="#230204"/>
<path d="M176.911 122.253C176.944 122.402 176.978 122.551 177 122.924C176.952 123.402 176.914 123.656 176.754 123.939C175.453 125.276 173.882 125.007 172.287 124.914C172.112 124.803 172.043 124.713 172.004 124.455C171.938 121.352 172.782 120.505 175.136 121.257C175.772 121.46 176.322 121.914 176.911 122.253Z" fill="#090104"/>
<path d="M182.881 119.937C182.77 119.953 182.66 119.968 182.337 120C179.353 119.972 178.507 118.525 179.258 115.115C179.512 114.881 179.766 114.648 180.178 114.342C180.439 114.22 180.507 114.13 180.541 114.001C180.541 114.001 180.674 113.998 180.859 114.002C181.621 114.217 182.196 114.429 182.638 114.673C182.092 114.757 181.67 114.757 181.269 114.869C180.233 115.16 179.357 115.661 179.585 117.264C179.776 118.61 180.832 119.475 182.021 119.287C183.302 119.085 183.405 117.967 183.321 116.766C183.274 116.088 183.104 115.423 183.108 114.766C184.534 116.125 183.894 117.707 183.599 119.248C183.599 119.248 183.614 119.266 183.52 119.294C183.244 119.527 183.062 119.732 182.881 119.937Z" fill="#4F0606"/>
<path d="M185 126C183.034 129.328 179.574 130.175 176.128 130.895C174.848 131.163 173.449 130.85 172 130.698C173.939 130.338 176.116 130.444 177.994 129.738C180.411 128.829 182.589 127.269 185 126Z" fill="#AA242B"/>
<path d="M184.066 119C184.254 117.503 184.955 115.959 183.334 114.602C183.147 114.557 183.025 114.511 183.025 114.511C182.394 114.304 181.763 114.097 181 113.87C182.1 112.004 183.234 113.643 184.193 114.15C185.345 114.76 185.229 117.936 184.066 119Z" fill="#BE252C"/>
<path d="M176.893 122.272C176.229 122.08 175.656 121.73 174.994 121.573C172.54 120.992 171.66 121.646 171.607 124C170.394 123.089 171.301 122.202 171.741 121.291C171.741 121.291 171.699 121.267 171.865 121.262C173.283 121.171 174.535 121.086 175.787 121C175.787 121 175.9 121.037 176.005 121.124C176.407 121.49 176.703 121.77 177 122.05C176.981 122.1 176.962 122.151 176.893 122.272Z" fill="#4F0606"/>
<path d="M178.766 116C178.105 119.033 178.984 120.328 182 120.376C181.264 121.323 179.868 121.179 178.736 120.033C177.77 119.056 177.729 117.193 178.766 116Z" fill="#BE252C"/>
<path d="M160 114C160.576 112.369 161.242 110.704 162 109C161.424 110.629 160.757 112.297 160 114Z" fill="#AA242B"/>
<path d="M171.762 121C171.604 122.047 171.134 123.074 171.761 124.26C171.847 124.408 171.885 124.488 171.97 124.667C172.003 124.838 172.004 124.893 171.996 124.96C171.987 124.974 171.97 125 171.97 125C170.766 124.178 170.667 122.758 171.762 121Z" fill="#C92328"/>
<path d="M162 109C162.874 107.67 163.875 106.34 165 105C164.125 106.327 163.126 107.663 162 109Z" fill="#AA242B"/>
<path d="M177 125.058C175.872 126.24 173.728 126.342 172.02 125.18C171.969 125.067 172.01 125.04 172.205 125.051C173.899 125.034 175.399 125.007 176.924 125C176.949 125.02 177 125.058 177 125.058Z" fill="#C92328"/>
<path d="M177 120.554C175.427 120.776 173.809 120.876 172 121C172.633 119.877 174.535 119.659 177 120.554Z" fill="#C92328"/>
<path d="M163.841 125.703C164.372 126.442 164.77 127.092 165 128C163.888 127.172 162.944 126.086 162 125C162.292 125.018 162.584 125.035 163.096 125.048C163.411 125.271 163.541 125.461 163.841 125.703Z" fill="#3D0405"/>
<path d="M189 123C189.006 123.207 188.689 123.42 188.094 123.726C187.68 123.879 187.543 123.94 187.407 124C187.407 124 187.122 123.986 187 123.969C187.478 123.637 188.078 123.321 189 123Z" fill="#AA242B"/>
<path d="M171 131C170.479 131.402 169.837 131.697 169 132C169.497 131.636 170.187 131.265 171 131Z" fill="#AA242B"/>
<path d="M131 119.082C130.946 119.602 130.891 120.122 130.744 120.732C130.474 121.276 130.099 121.758 130.162 122.177C130.278 122.953 130.65 123.692 130.762 124.008C128.829 125.006 127.025 125.865 125.309 126.873C124.852 127.141 124.667 127.863 124.376 128.505C124.395 128.633 124.365 128.626 124.265 128.648C124.136 128.792 124.107 128.915 124.062 129.15C123.987 129.481 123.928 129.699 123.761 129.939C123.621 130.302 123.589 130.644 123.557 131.1C123.531 131.363 123.504 131.512 123.477 131.661C123.109 131.758 122.742 131.855 122.27 132C121.207 131.817 120.25 131.587 119.046 131.257C116.709 131.002 114.617 130.853 112.526 130.69C111.786 130.632 111.048 130.537 110.309 130.459C109.851 130.317 109.393 130.174 108.801 129.852C108.314 129.536 107.961 129.399 107.607 129.261C107.308 129.074 107.009 128.888 106.633 128.501C106.324 128.149 106.093 127.997 105.861 127.844C105.861 127.844 105.867 127.839 105.857 127.727C105.613 127.456 105.381 127.296 105.148 127.137C104.91 126.894 104.672 126.651 104.416 126.183C104.069 125.647 103.741 125.335 103.413 125.023C103.183 124.64 102.953 124.256 102.701 123.763C102.259 122.515 101.839 121.375 101.306 120.171C101.205 119.96 101.216 119.813 101.325 119.482C101.286 118.859 101.15 118.42 101.013 117.982C100.995 117.294 100.976 116.606 101.101 115.721C101.354 114.709 101.464 113.894 101.574 113.079C101.574 113.079 101.584 112.928 101.732 112.839C102.233 111.901 102.586 111.051 102.938 110.201C102.938 110.201 102.963 110.083 102.989 110.028C103.921 109.087 104.827 108.201 105.742 107.195C105.751 107.075 105.775 107.062 105.886 107.048C106.039 106.919 106.081 106.805 106.123 106.69C106.123 106.69 106.161 106.581 106.323 106.535C106.87 106.137 107.255 105.786 107.64 105.436C107.76 105.391 107.881 105.346 108.233 105.327C108.897 105.019 109.328 104.686 109.76 104.352C109.885 104.319 110.01 104.286 110.365 104.277C111.161 104.013 111.727 103.726 112.294 103.439C112.894 103.289 113.495 103.139 114.335 103.087C115.809 103.123 117.043 103.062 118.277 103C118.769 103.106 119.261 103.213 119.912 103.467C121.126 103.98 122.182 104.345 123.238 104.711C123.307 104.792 123.385 104.863 123.539 104.965C123.893 105.244 124.179 105.483 124.584 105.7C124.704 105.678 124.695 105.691 124.732 105.8C124.963 105.982 125.159 106.055 125.354 106.127C125.46 106.162 125.552 106.219 125.676 106.366C126.196 106.924 126.669 107.416 127.259 107.94C128.372 109.565 129.368 111.157 130.478 112.777C130.725 113.291 130.858 113.777 130.905 114.488C130.879 116.17 130.94 117.626 131 119.082ZM114.009 110.503C114.088 111.573 113.898 112.773 114.34 113.667C114.642 114.277 115.824 114.764 116.616 114.771C118.051 114.783 118.566 113.514 118.688 112.343C118.768 111.584 118.42 110.136 118.115 110.096C116.821 109.925 115.472 110.165 114.009 110.503ZM108.112 116.351C108.095 116.583 107.994 116.848 108.073 117.041C108.436 117.932 108.834 119.536 109.248 119.544C110.55 119.571 111.972 119.183 113.112 118.545C113.472 118.343 113.431 116.599 112.98 115.993C111.916 114.562 109.532 114.732 108.112 116.351ZM118.755 117.2C119.188 119.065 120.55 119.937 122.629 119.751C123.793 119.646 124.299 119.007 124.291 117.927C124.283 116.81 124.626 115.517 123.037 115.062C121.549 114.636 119.553 115.518 118.755 117.2ZM115.22 119.973C113.639 120.998 113.313 122.585 113.889 124.12C114.479 125.689 116.145 124.85 117.345 125.045C117.402 125.054 117.486 125.064 117.517 125.034C117.98 124.587 118.724 124.198 118.845 123.67C119.397 121.266 117.994 119.756 115.22 119.973Z" fill="#E72026"/>
<path d="M98.7965 151.388C97.5729 146.076 97.9751 140.873 98.5725 135.685C98.9232 132.64 99.4679 129.614 100.001 126.593C100.1 126.029 100.559 125.529 100.852 125C101.307 125.391 101.857 125.712 102.201 126.183C106.052 131.454 111.257 133.749 117.715 133.295C120.555 133.096 122.708 135.663 121.782 138.415C119.81 144.277 117.217 149.837 113.03 154.492C110.751 157.026 108.082 158.619 104.429 157.77C101.046 156.983 99.7777 154.426 98.7965 151.388Z" fill="#E72026"/>
<path d="M164.068 151.442C164.038 150.307 163.927 149.299 164.076 148.321C164.146 147.861 164.627 147.211 165.082 147.085C165.921 146.852 166.808 147.071 166.892 148.079C166.96 148.91 167.059 149.756 166.954 150.577C166.756 152.122 165.862 152.407 164.068 151.442Z" fill="#202020"/>
<path d="M163.68 125.688C164.23 126.163 164.779 126.644 165.47 127.112C165.611 127.1 165.603 127.108 165.593 127.242C165.951 127.665 166.319 127.952 166.687 128.24C166.824 128.497 166.96 128.754 167 129.217C166.863 131.35 166.823 133.278 166.783 135.206C166.461 135.698 166.138 136.191 165.621 136.792C165.356 137.018 165.285 137.136 165.214 137.253C165.17 137.351 165.1 137.427 164.777 137.508C163.61 137.999 162.669 138.462 161.727 138.925C161.354 138.955 160.98 138.986 160.393 138.924C159.93 138.889 159.68 138.944 159.43 139C159.169 138.991 158.908 138.983 158.446 138.874C158.103 138.733 157.961 138.693 157.82 138.652C157.82 138.652 157.725 138.675 157.65 138.529C156.807 138.101 156.04 137.819 155.273 137.537C154.656 136.943 154.038 136.348 153.413 135.481C153.27 133.078 153.135 130.947 153 128.816C153.075 128.648 153.15 128.48 153.451 128.262C154.079 127.836 154.48 127.459 154.881 127.083C154.881 127.083 154.923 127.117 155.051 127.115C155.587 126.743 155.996 126.373 156.405 126.003C156.405 126.003 156.406 126.027 156.557 126.02C157.402 125.681 158.097 125.349 158.792 125.016C159.54 124.995 160.288 124.973 161.237 125.104C162.189 125.4 162.938 125.545 163.688 125.69C163.688 125.69 163.68 125.692 163.68 125.688ZM154.015 131.135C153.785 134.098 155.177 136.29 157.87 137.207C160.517 138.108 163.628 137.227 165.115 135.098C166.455 133.179 166.566 131.141 165.291 129.19C163.909 127.075 161.765 126.074 159.163 126.431C156.49 126.799 154.714 128.298 154.015 131.135Z" fill="#231B1C"/>
<path d="M153.656 129C153.822 130.891 153.917 132.871 154 135C152.838 133.235 152.643 131.222 153.656 129Z" fill="#3D0405"/>
<path d="M166.045 135C165.959 133.082 165.998 131.092 166.141 129C167.255 130.922 167.349 132.932 166.045 135Z" fill="#3D0405"/>
<path d="M161 138C162.129 137.663 163.458 137.33 165 137C163.876 137.336 162.538 137.671 161 138Z" fill="#3D0405"/>
<path d="M159 125C158.474 125.345 157.806 125.675 157 126C157.527 125.659 158.193 125.321 159 125Z" fill="#3D0405"/>
<path d="M156 126C155.778 126.692 155.447 127.363 155 128C155.22 127.303 155.555 126.641 156 126Z" fill="#3D0405"/>
<path d="M155 137C155.612 137.205 156.293 137.527 157 138C156.374 137.806 155.721 137.461 155 137Z" fill="#3D0405"/>
<path d="M151 130C151.132 129.704 151.444 129.359 152 129C151.889 129.308 151.535 129.629 151 130Z" fill="#460506"/>
<path d="M155 127C154.775 127.673 154.446 128.337 154 129C154.221 128.33 154.559 127.66 155 127Z" fill="#3D0405"/>
<path d="M166 129C165.683 128.6 165.338 127.951 165 127C165.329 127.382 165.651 128.066 166 129Z" fill="#3D0405"/>
<path d="M159 138.965C159.232 138.213 159.568 137.869 160 138.045C159.765 138.835 159.434 139.104 159 138.965Z" fill="#3D0405"/>
<path d="M152.119 129C151.831 128.501 152.074 127.871 152.752 127C153.218 127.529 153.039 128.232 152.119 129Z" fill="#460506"/>
<path d="M123.002 131.6C122.99 131.302 123.02 131.152 123.151 130.813C123.297 130.314 123.342 130.005 123.387 129.696C123.452 129.475 123.517 129.255 123.674 128.869C123.861 128.618 123.915 128.515 123.927 128.394C123.927 128.394 123.96 128.401 123.978 128.402C125.857 126.669 127.815 125.23 130.686 125.02C134.447 124.746 138.429 127.28 138.907 130.522C139.547 134.866 136.832 138.439 132.523 138.922C127.152 139.524 123.3 136.608 123.002 131.6ZM137.367 132.308C137.072 128.975 134.827 126.708 131.607 126.491C128.63 126.29 125.739 128.168 125.086 130.728C124.316 133.746 126.386 136.678 129.767 137.358C133.485 138.106 136.542 136.186 137.367 132.308Z" fill="#2F1313"/>
<path d="M134 123.95C134.162 122.725 134.162 122.725 136 123.718C135.513 123.8 135.131 123.864 134.546 123.978C134.343 124.028 134.112 123.982 134 123.95Z" fill="#180002"/>
<path d="M135.985 148.854C135.958 149.66 136.101 150.402 135.839 150.961C135.614 151.444 134.918 152.014 134.448 152C133.985 151.986 133.347 151.363 133.143 150.866C132.907 150.29 133.028 149.559 133.052 148.897C133.085 147.988 133.14 147.068 134.42 147.003C135.668 146.941 135.915 147.738 135.985 148.854Z" fill="#202020"/>
<path d="M122 105C121.368 104.528 120.695 103.869 120 103C120.638 103.464 121.298 104.138 122 105Z" fill="#AD232C"/>
<path d="M109 104C108.763 104.344 108.434 104.695 108 105C108.233 104.638 108.57 104.323 109 104Z" fill="#AD232C"/>
<path d="M113 103C112.227 103.363 111.231 103.702 110 104C110.769 103.631 111.773 103.303 113 103Z" fill="#AD232C"/>
<path d="M107 105C106.77 105.329 106.439 105.664 106 106C106.227 105.669 106.564 105.337 107 105Z" fill="#AD232C"/>
<path d="M175.568 100.597C175.082 98.7949 173.816 99.641 172.935 99.811C171.56 100.077 170.24 100.611 168.872 100.933C168.288 101.07 167.644 100.955 167 100.955C167.295 98.5462 168.524 97.2544 170.606 97.1366C172.195 97.0467 173.858 96.851 175.372 97.1988C176.908 97.5517 178.303 98.5133 179.882 99.2254C180.024 99.3935 180.044 99.5445 179.907 99.8293C178.775 100.195 177.801 100.427 176.826 100.659C176.452 100.648 176.079 100.637 175.568 100.597Z" fill="#EC1F26"/>
<path d="M177 100.592C177.873 100.357 178.841 100.186 179.948 100C180.189 100.906 179.571 101.146 178.456 100.921C178.004 100.83 177.549 100.745 177 100.592Z" fill="#BE252C"/>
<path d="M103 110C102.774 110.633 102.447 111.31 102 112C102.219 111.356 102.559 110.7 103 110Z" fill="#AD232C"/>
<path d="M101 118C101.489 118.246 101.88 118.594 102 119C101.453 118.74 101.178 118.421 101 118Z" fill="#AD232C"/>
<path d="M177 124.375C176.771 124.58 176.558 124.706 176.296 124.894C174.931 124.977 173.615 124.998 172.147 125C171.992 124.938 171.99 124.895 172.007 124.787C173.691 124.76 175.415 124.952 176.843 124C176.99 124.085 177.003 124.191 177 124.375Z" fill="#4F0606"/>
<path d="M182.257 116.007C182.399 115.986 182.516 116.017 182.572 116.037C182.748 116.491 182.927 116.92 182.977 117.358C183.065 118.132 182.957 118.853 181.607 118.984C180.353 119.105 179.24 118.547 179.038 117.678C178.798 116.644 179.722 116.321 180.814 116.134C181.236 116.061 181.681 116.061 182.257 116.007Z" fill="#090104"/>
<path d="M115.026 109.361C116.226 109.135 117.386 108.881 118.497 109.061C118.759 109.104 119.058 110.633 118.99 111.435C118.885 112.672 118.443 114.013 117.209 114C116.528 113.993 115.513 113.479 115.253 112.834C114.873 111.889 115.037 110.622 115.026 109.361Z" fill="#270204"/>
<path d="M108.127 115.334C109.681 113.698 112.375 113.51 113.578 115.087C114.087 115.755 114.134 117.675 113.727 117.897C112.439 118.601 110.832 119.028 109.36 118.999C108.893 118.989 108.443 117.223 108.033 116.242C107.944 116.028 108.057 115.736 108.127 115.334Z" fill="#270204"/>
<path d="M119 116.197C119.703 114.584 121.504 113.669 122.845 114.111C124.279 114.583 123.969 115.924 123.977 117.083C123.984 118.203 123.528 118.866 122.478 118.974C120.603 119.168 119.374 118.264 119 116.197Z" fill="#270204"/>
<path d="M115.611 119.014C118.091 118.826 119.406 120.571 118.889 123.349C118.775 123.959 118.078 124.409 117.645 124.926C117.615 124.961 117.536 124.949 117.483 124.938C116.359 124.713 114.798 125.683 114.246 123.869C113.706 122.095 114.011 120.261 115.611 119.014ZM114.999 121.986C115.032 123.012 114.753 124.274 116.206 124.152C117.014 124.084 117.967 124.349 118.011 122.819C118.048 121.54 118.126 120.089 116.8 119.727C115.682 119.422 115.047 120.218 114.999 121.986Z" fill="#4F0606"/>
<path d="M155.026 130.556C155.573 127.904 157.032 126.431 159.228 126.07C161.367 125.718 163.129 126.702 164.264 128.78C165.311 130.696 165.221 132.699 164.12 134.583C162.897 136.675 160.341 137.541 158.166 136.655C155.953 135.755 154.81 133.601 155.026 130.556Z" fill="#F3F4F5"/>
<path d="M136 131.955C135.215 135.673 132.264 137.586 128.674 136.841C125.41 136.164 123.412 133.243 124.155 130.235C124.785 127.686 127.576 125.815 130.451 126.015C133.559 126.231 135.727 128.489 136 131.955Z" fill="#F3F4F5"/>
<path d="M115.003 121.91C115.049 120.494 115.678 119.786 116.785 120.057C118.099 120.379 118.021 121.669 117.985 122.807C117.941 124.168 116.998 123.932 116.197 123.993C114.757 124.101 115.034 122.978 115.003 121.91Z" fill="#090104"/>
</svg>
