<svg width="291" height="255" viewBox="0 0 291 255" fill="none" xmlns="http://www.w3.org/2000/svg">
<rect width="291" height="255" fill="black"/>
<path d="M196.468 125.594C196.411 124.506 196.354 123.419 196.261 121.693C196.032 120.549 195.838 120.041 195.645 119.534C195.685 119.141 195.726 118.748 196.131 117.96C200.865 116.544 205.235 115.524 209.605 114.503C210.679 114.469 211.752 114.436 213.556 114.378C215.41 114.12 216.534 113.885 217.658 113.65C218.093 113.665 218.529 113.68 219.62 113.842C223.07 113.994 225.862 113.999 228.655 114.005C229.387 114.191 230.119 114.377 231.47 114.805C243.596 119.409 246.888 125.26 242.612 134.901C241.345 137.756 238.889 140.447 236.31 142.265C233.104 144.526 233.052 146.187 235.395 148.987C237.384 151.363 238.891 154.141 240.737 156.931C237.391 159.178 234.29 161.261 231.189 163.343C224.738 166.278 224.624 159.831 221.742 156.487C220.009 153.677 218.519 151.504 217.029 149.33C216.686 149.504 216.343 149.678 216 149.852C215.824 151.413 215.649 152.973 215.226 154.809C214.735 160.466 210.782 159.607 207.392 159.511C203.494 159.401 203.672 156.413 203.64 153.755C203.577 148.442 203.723 143.125 203.548 137.818C203.5 136.377 202.615 134.964 201.97 133.161C200.423 132.379 199.02 131.974 197.618 131.569C197.52 130.808 197.422 130.047 197.289 128.616C196.992 127.162 196.73 126.378 196.468 125.594ZM222.775 128.505C215.721 128.384 215.246 129.111 217.249 137.942C219.554 137.339 222.036 137.093 224.084 136.018C225.6 135.223 226.55 133.35 227.752 131.957C226.385 130.832 225.018 129.706 222.775 128.505Z" fill="white" fill-opacity="0.7"/>
<path d="M150.633 116.361C151.018 116.457 151.403 116.554 152.194 117.05C152.715 119.155 152.831 120.861 152.947 122.566C152.883 123.327 152.819 124.087 152.721 125.654C152.718 128.809 152.748 131.156 152.777 133.504C152.713 134.588 152.648 135.671 152.554 137.596C152.096 146.077 151.668 153.716 151.239 161.355C150.901 161.353 150.564 161.351 149.86 161.267C149.216 161.003 149.003 161.06 148.855 161.356C148.65 161.33 148.445 161.303 147.567 161.145C144.794 161.165 142.694 161.317 140.593 161.47C140.004 161.389 139.415 161.309 138.427 160.868C138.298 151.807 137.478 151.205 127.531 153.335C127.531 155.641 127.531 158.075 127.531 160.508C127.102 160.708 126.672 160.908 125.538 161.062C122.704 160.957 120.489 160.495 118.46 160.919C114.094 161.831 113.591 159.71 113.582 156.12C113.569 150.915 113.026 145.711 112.709 140.506C112.671 134.832 112.632 129.159 112.6 122.639C113.268 120.003 113.931 118.211 114.594 116.42C118.297 116.469 122.001 116.518 126.277 116.761C127.124 117.143 127.4 117.33 127.676 117.517C127.654 118.282 127.632 119.046 127.588 120.634C127.628 124.475 127.691 127.493 127.754 130.51C127.715 132.888 127.675 135.266 127.625 138.512C130.134 144.386 134.041 140.497 137.823 141.595C137.823 133.015 137.823 125.129 137.823 116.361C142.445 116.361 146.539 116.361 150.633 116.361Z" fill="white" fill-opacity="0.7"/>
<path d="M108.442 152.031C108.442 152.031 108.369 152.3 108.51 152.713C108.915 153.429 109.179 153.733 109.444 154.037C109.444 154.037 109.368 154.318 109.527 154.756C111.628 157.988 108.848 158.564 107.515 159.82C107.515 159.82 107.025 159.914 106.476 160.087C105.325 160.606 104.722 160.952 104.119 161.298C104.119 161.298 103.839 161.17 103.37 161.256C102.135 161.73 101.37 162.118 100.604 162.505C100.16 162.585 99.7159 162.665 98.6341 162.777C97.5302 162.782 97.0638 162.755 96.5974 162.728C96.4288 162.443 96.2452 162.167 95.8605 161.304C93.2393 154.312 87.8149 158.186 83.8058 157.39C80.0778 156.649 79.3301 159.762 78.7253 162.581C77.4096 162.529 76.0939 162.476 74.1524 162.118C70.9539 160.783 68.3812 159.752 65.7471 158.663C65.6857 158.604 65.5648 158.486 65.6061 158.184C65.6674 156.703 65.6874 155.523 65.9609 154.141C68.0754 150.152 69.9365 146.364 71.7975 142.577C71.7975 142.577 71.9347 142.322 72.1665 142.02C72.7393 140.986 73.0803 140.255 73.4213 139.524C77.981 130.778 82.5407 122.032 87.6178 112.294C94.4161 125.404 100.782 137.68 107.39 150.545C107.901 151.434 108.172 151.733 108.442 152.031ZM75.1463 142.511C72.6209 147.211 70.0955 151.911 66.7059 158.22C71.1366 158.22 75.0346 159.425 77.0226 157.988C82.4034 154.099 91.3489 152.674 96.1547 157.06C100.518 161.043 103.636 158.041 107.918 157.007C100.982 144.167 94.4401 132.06 87.5275 119.266C83.3773 127.201 79.5203 134.575 75.1463 142.511Z" fill="white" fill-opacity="0.7"/>
<path d="M261.014 160.717C256.548 160.734 252.445 160.546 247.763 160.332C247.763 145.558 247.763 131.12 247.732 116.235C248.133 115.684 248.564 115.58 249.556 115.46C250.28 115.405 250.443 115.366 250.605 115.327C251.057 115.368 251.509 115.408 252.719 115.485C255.202 115.452 256.927 115.383 258.652 115.314C259.909 116.409 262.239 117.483 262.261 118.602C262.521 131.865 262.453 145.136 262.398 158.404C262.395 159.108 261.733 159.81 261.014 160.717ZM259.627 153.851C259.625 143.354 259.517 132.855 259.677 122.361C259.734 118.592 258.2 117.455 254.614 117.456C251.019 117.457 249.506 118.616 249.562 122.375C249.721 133.036 249.639 143.701 249.599 154.365C249.591 156.72 249.674 158.98 252.901 158.492C255.53 158.094 259.883 160.525 259.627 153.851Z" fill="white" fill-opacity="0.7"/>
<path d="M202.328 161.453C201.858 156.414 201.829 151.442 201.732 146.008C201.697 145.099 201.731 144.652 201.783 143.421C201.905 139.605 202.01 136.572 202.115 133.539C202.615 134.964 203.5 136.377 203.547 137.818C203.722 143.125 203.577 148.443 203.64 153.755C203.672 156.413 203.494 159.401 207.392 159.511C210.782 159.607 214.735 160.466 215.286 155.246C215.63 157.46 215.665 159.514 215.7 161.568C211.389 161.552 207.079 161.535 202.328 161.453Z" fill="white" fill-opacity="0.7"/>
<path d="M164.104 99.5957C166.474 98.8797 168.83 98.2726 171.205 98.1819C171.894 98.1556 173.399 99.9363 173.23 100.33C172.353 102.372 171.267 104.435 169.758 106.019C169.37 106.426 167.188 105.123 165.614 104.432C164.963 102.805 164.529 101.353 164.104 99.5957Z" fill="white" fill-opacity="0.7"/>
<path d="M185.901 162.672C185.148 158.751 183.1 157.074 179.23 157.359C176.086 157.591 172.924 157.562 169.246 157.641C168.722 157.632 168.573 157.493 168.646 157.108C171.229 154.298 182.995 153.048 184.211 155.713C185.906 159.424 189.247 159.115 191.732 160.741C191.131 161.181 190.531 161.622 189.772 162.295C188.512 162.605 187.41 162.683 185.901 162.672Z" fill="white" fill-opacity="0.7"/>
<path d="M168.798 157.698C168.522 159.133 168.17 160.501 167.822 162.226C167.827 162.583 167.685 162.591 167.329 162.653C166.508 162.831 166.043 162.948 165.578 163.066C164.951 162.827 164.324 162.589 163.368 162.3C160.02 160.774 157 159.298 153.554 157.614C154.852 155.006 156.123 152.452 157.491 149.531C157.588 149.163 157.892 149.211 158.161 149.298C158.43 149.385 158.65 149.571 158.639 149.983C158.079 159.109 158.633 159.551 167.589 157.57C167.907 157.5 168.245 157.517 168.573 157.494C168.573 157.494 168.722 157.632 168.798 157.698Z" fill="white" fill-opacity="0.7"/>
<path d="M191.27 140.324C194.06 146.203 196.67 151.836 199.545 158.039C197.723 158.641 196.082 159.183 194.073 159.369C196.174 155.525 195.254 152.443 193.044 149.106C190.887 145.85 189.411 142.151 187.513 138.714C184.293 132.885 180.976 127.109 176.961 120.003C173.661 125.625 171.084 130.049 168.475 134.454C165.409 139.628 165.328 146.745 158.65 149.571C158.65 149.571 158.43 149.385 158.314 149.295C158.391 148.366 158.582 147.526 159.028 146.171C159.419 145.278 159.557 144.901 159.695 144.524C159.695 144.524 159.858 144.284 160.144 143.966C161.54 141.381 162.65 139.112 163.76 136.844C164.337 135.953 164.914 135.062 165.825 133.666C167.106 131.008 168.054 128.856 169.001 126.704C171.343 122.385 173.685 118.066 176.434 112.998C177.603 114.819 178.346 115.977 179.358 117.673C180.273 119.33 180.918 120.449 181.564 121.567C182.482 123.359 183.399 125.152 184.498 127.597C186.282 131.107 187.884 133.964 189.487 136.821C190.022 137.907 190.556 138.992 191.27 140.324Z" fill="white" fill-opacity="0.7"/>
<path d="M65.7469 158.663C62.6964 159.381 59.5846 160.041 56.0316 160.802C47.8605 160.826 40.1306 160.749 31.9112 160.16C31.4064 147.557 31.3898 135.466 31.3765 123.376C31.3687 116.308 31.3712 116.331 38.1994 116.305C40.3458 116.296 42.4916 116.127 44.6377 116.031C44.9656 121.567 45.2935 127.103 45.5959 133.554C45.4537 137.832 45.3371 141.195 44.888 144.556C39.9254 144.19 43.0189 141.052 42.9425 139.384C42.6608 133.238 43.0904 127.054 42.6489 120.927C42.5618 119.719 39.8318 117.868 38.2552 117.799C35.9232 117.696 33.4801 118.47 33.5464 122.109C33.7437 132.925 33.6973 143.748 33.5617 154.565C33.5235 157.611 34.5672 158.648 37.6027 158.596C46.9212 158.435 56.2436 158.505 65.5645 158.485C65.5645 158.485 65.6855 158.604 65.7469 158.663Z" fill="white" fill-opacity="0.7"/>
<path d="M57.208 113.839C53.9102 111.978 50.6598 110.26 48.0519 107.847C46.9572 106.835 46.5609 104.121 47.0869 102.613C47.4813 101.483 49.8286 100.974 51.3624 100.32C52.4784 99.8448 53.6655 99.4727 54.8575 99.2543C56.5127 98.951 58.7844 98.0847 59.7343 98.8221C61.0127 99.8146 62.1933 102.351 61.8049 103.79C60.8767 107.229 59.0055 110.414 57.208 113.839Z" fill="white" fill-opacity="0.7"/>
<path d="M44.4844 115.696C42.491 116.127 40.3452 116.296 38.1988 116.305C31.3706 116.331 31.3681 116.308 31.3759 123.376C31.3891 135.466 31.4058 147.557 31.4322 160.12C30.5881 158.486 29 156.378 29 154.271C29.0001 143.093 29.5597 131.915 29.5911 120.736C29.6065 115.248 29.9279 114.486 35.6574 114.583C38.5524 114.632 41.4404 115.089 44.4844 115.696Z" fill="white" fill-opacity="0.7"/>
<path d="M84.1895 101.958C82.7979 103.916 81.4976 105.518 79.2285 108.315C77.5042 104.811 76.2912 102.347 75.0781 99.8822C77.0738 99.2517 79.0308 98.3852 81.0749 98.0502C83.6581 97.627 84.7034 99.0687 84.1895 101.958Z" fill="white" fill-opacity="0.7"/>
<path d="M142.283 106.691C140.946 108.279 139.625 109.505 137.943 110.768C136.73 110.166 135.879 109.527 134.638 108.404C133.973 106.787 133.698 105.652 133.423 104.517C133.682 104.279 133.941 104.041 134.736 103.682C136.089 103.299 136.905 103.037 137.722 102.776C140.835 101.916 142.774 102.569 142.283 106.691Z" fill="white" fill-opacity="0.7"/>
<path d="M122.461 95.9451C122.486 94.5064 122.636 93.4448 122.792 91.9799C122.797 91.5766 122.918 91.3097 122.927 91.1652C126.547 87.8617 127.612 92.5414 130.259 93.425C130.043 94.6444 129.52 95.7373 128.514 97.0736C128.031 97.3172 127.614 97.5629 127.614 97.5629C125.938 97.1494 124.262 96.7359 122.461 95.9451Z" fill="white" fill-opacity="0.7"/>
<path d="M75.404 142.23C79.5195 134.575 83.3764 127.201 87.5266 119.266C94.4393 132.06 100.981 144.167 107.918 157.006C103.635 158.041 100.518 161.043 96.1539 157.06C91.3481 152.674 82.4025 154.099 77.0218 157.988C75.0337 159.425 71.1358 158.22 66.7051 158.22C70.0947 151.911 72.62 147.211 75.404 142.23ZM90.3313 146.083C89.539 144.611 88.7466 143.139 87.2593 140.376C86.0168 144.05 85.2439 146.335 84.0968 149.726C87.1802 148.482 90.5743 151.662 90.3313 146.083Z" fill="white" fill-opacity="0.7"/>
<path d="M65.1121 153.522C65.4908 153.531 65.6805 153.916 65.6937 154.13C65.687 155.523 65.667 156.703 65.6056 158.184C56.2434 158.505 46.921 158.435 37.6025 158.596C34.567 158.648 33.5233 157.611 33.5615 154.566C33.6971 143.748 33.7435 132.925 33.5462 122.109C33.4799 118.47 35.923 117.696 38.255 117.799C39.8316 117.868 42.5616 119.72 42.6487 120.927C43.0902 127.054 42.6606 133.239 42.9423 139.384C43.0187 141.052 39.9252 144.19 44.8878 144.556C45.3829 144.975 45.5456 145.392 45.8238 146.125C45.3846 146.646 44.8298 146.851 44.2749 147.055C44.2947 147.549 44.3144 148.043 44.3341 148.536C48.3009 148.536 52.271 148.635 56.2335 148.506C59.5282 148.398 62.5881 148.335 63.0837 152.736C63.1194 153.053 64.16 153.257 65.1121 153.522Z" fill="white" fill-opacity="0.7"/>
<path d="M259.626 154.322C259.883 160.525 255.53 158.094 252.901 158.492C249.674 158.98 249.591 156.72 249.6 154.364C249.639 143.701 249.721 133.036 249.562 122.374C249.506 118.616 251.019 117.457 254.614 117.456C258.2 117.455 259.734 118.592 259.677 122.361C259.517 132.855 259.625 143.354 259.626 154.322Z" fill="white" fill-opacity="0.7"/>
<path d="M158.639 149.983C165.328 146.745 165.409 139.628 168.475 134.453C171.084 130.049 173.661 125.625 176.961 120.002C180.976 127.109 184.293 132.885 187.513 138.714C189.411 142.15 190.887 145.85 193.044 149.106C195.254 152.443 196.174 155.525 193.693 159.395C193.221 160.08 192.762 160.383 192.017 160.713C189.247 159.115 185.905 159.425 184.211 155.713C182.994 153.049 171.228 154.299 168.646 157.109C168.244 157.517 167.907 157.5 167.589 157.571C158.633 159.551 158.079 159.109 158.639 149.983ZM173.915 146.483C174.023 151.426 177.09 148.791 180.235 148.944C178.927 146.083 177.942 143.927 176.48 140.73C175.372 143.202 174.791 144.498 173.915 146.483Z" fill="white" fill-opacity="0.7"/>
<path d="M28.336 187.012V183.851H43.532V187.012H28.336ZM38.428 170.25L48.868 192H44.779L35.296 171.7H36.775L27.292 192H23.203L33.643 170.25H38.428ZM54.187 180.052H63.032C64.308 180.052 65.3133 179.762 66.048 179.182C66.802 178.602 67.179 177.809 67.179 176.804C67.179 175.779 66.802 174.987 66.048 174.426C65.3133 173.846 64.308 173.556 63.032 173.556H53.636L55.347 171.41V192H51.519V170.25H63.38C64.9073 170.25 66.2413 170.53 67.382 171.091C68.542 171.632 69.441 172.396 70.079 173.382C70.7363 174.349 71.065 175.489 71.065 176.804C71.065 178.08 70.7363 179.211 70.079 180.197C69.441 181.164 68.542 181.927 67.382 182.488C66.2413 183.029 64.9073 183.3 63.38 183.3H54.187V180.052ZM58.479 181.821H62.974L71.616 192H67.034L58.479 181.821ZM81.2782 172.019H85.1062V192H81.2782V172.019ZM72.2882 170.25H94.0962V173.614H72.2882V170.25ZM125.436 182.546C125.416 183.899 125.155 185.175 124.653 186.374C124.15 187.553 123.435 188.597 122.507 189.506C121.579 190.415 120.448 191.13 119.114 191.652C117.799 192.155 116.291 192.406 114.59 192.406C112.869 192.406 111.274 192.145 109.805 191.623C108.335 191.101 107.05 190.357 105.948 189.39C104.865 188.404 104.024 187.215 103.425 185.823C102.825 184.431 102.526 182.865 102.526 181.125C102.526 179.385 102.825 177.819 103.425 176.427C104.043 175.035 104.904 173.856 106.006 172.889C107.108 171.903 108.403 171.149 109.892 170.627C111.38 170.105 113.014 169.844 114.793 169.844C117.016 169.844 118.959 170.211 120.622 170.946C122.304 171.661 123.657 172.647 124.682 173.904C125.706 175.161 126.335 176.601 126.567 178.225H122.681C122.468 177.2 122.004 176.311 121.289 175.557C120.593 174.803 119.694 174.223 118.592 173.817C117.49 173.411 116.214 173.208 114.764 173.208C113.062 173.208 111.583 173.527 110.327 174.165C109.089 174.784 108.123 175.683 107.427 176.862C106.75 178.041 106.412 179.462 106.412 181.125C106.412 182.788 106.76 184.218 107.456 185.417C108.171 186.616 109.176 187.534 110.472 188.172C111.767 188.81 113.294 189.129 115.054 189.129C116.755 189.129 118.244 188.839 119.52 188.259C120.796 187.679 121.801 186.877 122.536 185.852C123.27 184.808 123.667 183.6 123.725 182.227L125.436 182.546ZM115.808 184.199V181.299H126.799V192H123.957L123.493 182.981L124.392 184.199H115.808ZM133.603 187.012V183.851H148.799V187.012H133.603ZM143.695 170.25L154.135 192H150.046L140.563 171.7H142.042L132.559 192H128.47L138.91 170.25H143.695ZM160.614 170.25V190.289L158.903 188.636H175.288V192H156.786V170.25H160.614ZM182.024 170.25V190.289L180.313 188.636H196.698V192H178.196V170.25H182.024ZM216.977 179.53V182.72H201.781V179.53H216.977ZM204.304 181.125L202.767 190.84L200.94 188.694H217.818V192H198.852L200.592 181.125L198.852 170.25H217.673V173.556H200.94L202.767 171.41L204.304 181.125ZM224.477 180.052H233.322C234.598 180.052 235.603 179.762 236.338 179.182C237.092 178.602 237.469 177.809 237.469 176.804C237.469 175.779 237.092 174.987 236.338 174.426C235.603 173.846 234.598 173.556 233.322 173.556H223.926L225.637 171.41V192H221.809V170.25H233.67C235.197 170.25 236.531 170.53 237.672 171.091C238.832 171.632 239.731 172.396 240.369 173.382C241.026 174.349 241.355 175.489 241.355 176.804C241.355 178.08 241.026 179.211 240.369 180.197C239.731 181.164 238.832 181.927 237.672 182.488C236.531 183.029 235.197 183.3 233.67 183.3H224.477V180.052ZM228.769 181.821H233.264L241.906 192H237.324L228.769 181.821ZM252.08 192V181.618H255.908V192H252.08ZM241.814 170.25H246.135L255.009 181.386H252.95L261.824 170.25H266.145L255.212 183.967L252.776 183.996L241.814 170.25Z" fill="white" fill-opacity="0.7"/>
</svg>
