<svg width="291" height="255" viewBox="0 0 291 255" fill="none" xmlns="http://www.w3.org/2000/svg">
<rect width="291" height="255" fill="black"/>
<path d="M129.25 141.09C129.05 142.93 128.4 144.56 127.3 145.98C126.22 147.38 124.8 148.47 123.04 149.25C121.28 150.03 119.27 150.42 117.01 150.42C114.49 150.42 112.28 149.93 110.38 148.95C108.48 147.97 107 146.61 105.94 144.87C104.88 143.11 104.35 141.07 104.35 138.75C104.35 136.43 104.88 134.4 105.94 132.66C107 130.9 108.48 129.53 110.38 128.55C112.28 127.57 114.49 127.08 117.01 127.08C119.27 127.08 121.28 127.47 123.04 128.25C124.8 129.03 126.22 130.12 127.3 131.52C128.4 132.92 129.05 134.55 129.25 136.41H125.26C125.04 135.21 124.56 134.18 123.82 133.32C123.1 132.46 122.16 131.8 121 131.34C119.84 130.86 118.5 130.62 116.98 130.62C115.22 130.62 113.69 130.95 112.39 131.61C111.11 132.27 110.12 133.21 109.42 134.43C108.72 135.65 108.37 137.09 108.37 138.75C108.37 140.41 108.72 141.85 109.42 143.07C110.12 144.29 111.11 145.23 112.39 145.89C113.69 146.55 115.22 146.88 116.98 146.88C118.5 146.88 119.84 146.65 121 146.19C122.16 145.73 123.1 145.07 123.82 144.21C124.56 143.33 125.04 142.29 125.26 141.09H129.25ZM150.853 137.1V140.4H135.133V137.1H150.853ZM137.743 138.75L136.153 148.8L134.263 146.58H151.723V150H132.103L133.903 138.75L132.103 127.5H151.573V130.92H134.263L136.153 128.7L137.743 138.75ZM158.612 137.64H167.762C169.082 137.64 170.122 137.34 170.882 136.74C171.662 136.14 172.052 135.32 172.052 134.28C172.052 133.22 171.662 132.4 170.882 131.82C170.122 131.22 169.082 130.92 167.762 130.92H158.042L159.812 128.7V150H155.852V127.5H168.122C169.702 127.5 171.082 127.79 172.262 128.37C173.462 128.93 174.392 129.72 175.052 130.74C175.732 131.74 176.072 132.92 176.072 134.28C176.072 135.6 175.732 136.77 175.052 137.79C174.392 138.79 173.462 139.58 172.262 140.16C171.082 140.72 169.702 141 168.122 141H158.612V137.64ZM163.052 139.47H167.702L176.642 150H171.902L163.052 139.47ZM198.138 137.1V140.4H182.418V137.1H198.138ZM185.028 138.75L183.438 148.8L181.548 146.58H199.008V150H179.388L181.188 138.75L179.388 127.5H198.858V130.92H181.548L183.438 128.7L185.028 138.75ZM233.407 127.5V150H229.627V128.7L230.857 128.76L220.387 150H216.157L205.687 128.79L206.917 128.73V150H203.137V127.5H209.197L219.277 148.29H217.297L227.347 127.5H233.407ZM238.44 127.5H242.4V150H238.44V127.5ZM271.164 141.09C270.964 142.93 270.314 144.56 269.214 145.98C268.134 147.38 266.714 148.47 264.954 149.25C263.194 150.03 261.184 150.42 258.924 150.42C256.404 150.42 254.194 149.93 252.294 148.95C250.394 147.97 248.914 146.61 247.854 144.87C246.794 143.11 246.264 141.07 246.264 138.75C246.264 136.43 246.794 134.4 247.854 132.66C248.914 130.9 250.394 129.53 252.294 128.55C254.194 127.57 256.404 127.08 258.924 127.08C261.184 127.08 263.194 127.47 264.954 128.25C266.714 129.03 268.134 130.12 269.214 131.52C270.314 132.92 270.964 134.55 271.164 136.41H267.174C266.954 135.21 266.474 134.18 265.734 133.32C265.014 132.46 264.074 131.8 262.914 131.34C261.754 130.86 260.414 130.62 258.894 130.62C257.134 130.62 255.604 130.95 254.304 131.61C253.024 132.27 252.034 133.21 251.334 134.43C250.634 135.65 250.284 137.09 250.284 138.75C250.284 140.41 250.634 141.85 251.334 143.07C252.034 144.29 253.024 145.23 254.304 145.89C255.604 146.55 257.134 146.88 258.894 146.88C260.414 146.88 261.754 146.65 262.914 146.19C264.074 145.73 265.014 145.07 265.734 144.21C266.474 143.33 266.954 142.29 267.174 141.09H271.164Z" fill="white" fill-opacity="0.7"/>
<path d="M73.7101 104.563C73.6396 105.885 73.569 107.206 73.4775 108.922C75.6446 108.079 77.3797 107.255 79.203 106.751C80.3 106.447 81.5973 106.386 82.6956 106.658C86.2071 107.525 89.7271 109.399 89.6701 113.131C89.6365 115.326 88.0166 116.216 86.6549 117.199C85.2266 118.231 83.8381 117.182 82.5938 116.377C81.2656 115.519 79.9863 114.584 78.6639 113.716C76.5533 112.33 74.502 113.367 72.9414 114.493C71.0864 115.831 69.7082 117.834 68.1458 119.57C67.9293 119.81 67.7157 120.165 67.7133 120.469C67.6899 123.517 67.4719 126.592 67.8181 129.601C67.9971 131.156 68.973 132.775 69.9869 134.047C72.0889 136.686 74.1952 139.436 76.791 141.532C79.2358 143.507 82.4519 144.061 85.6918 143.632C90.1685 143.039 93.5871 140.491 96.5909 137.412C97.5524 136.426 97.9382 134.799 98.3677 133.398C98.741 132.181 99.1988 131.432 100.632 131.401C102.08 131.371 102.714 132.086 102.881 133.344C103.131 135.218 103.083 137.056 101.778 138.626C101.571 138.876 101.266 139.254 101.328 139.486C101.906 141.629 100.248 142.779 99.2071 144.107C96.8988 147.053 93.9068 149.126 90.4595 150.629C87.4813 151.928 84.4783 152.825 81.191 152.622C77.6978 152.405 74.4285 151.38 71.5236 149.524C68.7579 147.756 66.2315 145.616 63.5801 143.667C60.9633 141.743 59.3674 138.936 57.5758 136.376C54.9213 132.584 52.7897 128.43 50.3074 124.511C48.8068 122.142 46.8965 120.293 43.7779 120.083C41.4611 119.928 41.5217 119.756 41.5053 122.333C41.4668 128.364 41.3892 134.395 41.2986 140.426C41.2759 141.937 43.2471 143.794 45.1522 144.072C46.6605 144.293 48.2079 144.485 49.6185 145.011C50.143 145.206 50.5201 146.29 50.6066 147.011C50.6748 147.58 50.1944 148.214 49.898 148.972C43.6511 148.972 37.2933 148.973 30.9356 148.971C28.6779 148.97 26.4202 148.947 24.1627 148.959C22.8818 148.967 21.6204 148.724 21.138 147.452C20.7272 146.368 21.9676 145.133 23.5514 144.675C25.128 144.218 26.6679 143.618 28.2625 143.246C29.6797 142.915 30.0001 141.854 30.067 140.745C30.2939 136.981 30.5187 133.211 30.5383 129.442C30.5875 119.96 30.5931 110.477 30.4462 100.997C30.4176 99.1545 29.6313 97.3207 29.162 95.4912C29.0998 95.2485 28.8878 94.9364 28.6719 94.858C26.9593 94.2361 25.2169 93.6955 23.5099 93.0595C22.8009 92.7954 22.0225 92.4916 21.5103 91.9738C20.5184 90.9709 21.0528 89.4314 22.4218 89.0852C22.7451 89.0035 23.0943 88.9987 23.4314 89.0002C32.7986 89.0417 42.1694 88.9546 51.5309 89.2079C54.7589 89.2953 58.0007 90.0787 61.1662 90.8367C63.2577 91.3376 65.3312 92.1641 67.2214 93.1955C69.8844 94.6486 72.273 96.5221 73.4016 99.5373C73.4633 99.7023 73.394 99.9137 73.3985 100.103C73.4184 100.953 73.4429 101.804 73.3379 102.697C73.0146 102.471 72.769 102.225 72.6313 101.928C71.0222 98.4671 68.8415 97.2168 64.9613 97.4074C63.4812 97.4801 63.0994 98.1884 63.3579 99.4992C63.6303 100.881 64.0218 102.254 64.134 103.649C64.6545 110.12 63.4672 113.366 56.9055 116.386C54.8808 117.318 52.8926 118.303 51.3586 120.116C50.4981 121.133 50.5144 121.815 51.1097 122.768C52.4402 124.898 53.732 127.052 55.1032 129.155C56.917 131.937 58.7661 134.697 60.6514 137.431C61.5404 138.72 62.4236 140.054 63.5281 141.146C66.3748 143.961 69.4237 146.554 73.0588 148.331C75.2006 149.378 77.2772 150.826 79.8855 149.599C80.2585 149.424 80.8558 149.705 81.3443 149.8C82.1649 149.96 82.9742 150.197 83.801 150.301C87.3072 150.744 90.0153 148.625 92.9743 147.343C93.3278 147.19 93.4772 146.566 93.7212 146.16C93.2873 145.953 92.8408 145.546 92.4215 145.573C90.7958 145.675 89.1765 146.086 87.5591 146.064C85.1033 146.03 82.3962 146.333 80.25 145.423C75.6329 143.464 71.3846 140.741 69.012 135.946C68.7257 135.368 68.2479 134.678 67.698 134.474C66.0481 133.864 65.7658 132.589 65.6754 131.112C65.6032 129.932 65.4219 128.756 65.4065 127.576C65.3702 124.792 65.0659 122.091 66.565 119.365C68.0148 116.728 70.0874 114.866 72.2191 112.964C73.1695 112.116 73.4902 111.235 73.2142 109.974C72.9391 108.718 72.7903 107.409 72.8046 106.125C72.8104 105.601 73.391 105.083 73.7101 104.563ZM31.772 128.093C31.7635 130.518 31.7167 132.942 31.7562 135.366C31.8049 138.344 31.8683 141.325 32.0617 144.296C32.1022 144.918 32.5973 145.821 33.1203 146.048C35.1714 146.939 37.3483 147.234 39.5513 146.542C40.5136 146.239 40.7832 145.594 40.6234 144.571C40.3037 142.525 39.9435 140.459 39.918 138.396C39.8366 131.81 39.8893 125.222 39.9186 118.634C39.9241 117.398 40.1529 116.16 40.1185 114.928C40.0276 111.672 39.8697 108.418 39.6946 105.166C39.6258 103.889 39.2894 102.611 39.3416 101.345C39.4313 99.1663 39.7736 96.9995 39.9303 94.8222C40.1457 91.8291 39.2116 91.002 36.2142 91.4254C35.7121 91.4964 35.2042 91.5581 34.7155 91.6868C33.2035 92.0851 32.2464 93.0544 32.1136 94.6251C31.9336 96.7555 31.7797 98.8953 31.772 101.032C31.7401 109.939 31.7672 118.847 31.772 128.093ZM57.5827 113.67C57.8612 113.484 58.1859 113.341 58.4107 113.103C59.6893 111.753 61.5113 110.577 62.0696 108.968C62.8434 106.737 62.8035 104.285 62.1268 101.748C61.0458 97.6959 58.7087 95.5021 54.7326 94.7376C52.5798 94.3237 50.4635 93.6332 48.2954 93.4087C46.0526 93.1764 43.767 93.357 41.5158 93.357C41.5158 100.484 41.5111 107.356 41.5222 114.228C41.5235 115.034 41.3074 116.035 42.6627 116C47.6514 115.869 52.7751 116.625 57.5827 113.67ZM78.2988 111.39C78.643 111.795 78.9076 112.372 79.3455 112.575C80.9646 113.327 82.6058 114.075 84.312 114.574C85.0491 114.789 86.2176 114.669 86.728 114.2C87.2378 113.731 87.4603 112.574 87.3047 111.823C86.664 108.73 80.2657 108.21 78.7344 109.932C78.4652 110.234 78.4124 110.73 78.2988 111.39Z" fill="white" fill-opacity="0.7"/>
<path d="M73.7374 104.543C73.3908 105.083 72.8103 105.601 72.8044 106.125C72.7901 107.409 72.9389 108.718 73.214 109.974C73.49 111.234 73.1694 112.116 72.2189 112.964C70.0873 114.866 68.0146 116.728 66.5648 119.365C65.0657 122.091 65.37 124.792 65.4063 127.576C65.4217 128.756 65.603 129.932 65.6752 131.112C65.7656 132.589 66.0479 133.864 67.6978 134.474C68.2477 134.678 68.7255 135.368 69.0118 135.946C71.3844 140.741 75.6327 143.464 80.2498 145.423C82.396 146.333 85.1031 146.03 87.5589 146.064C89.1763 146.086 90.7956 145.675 92.4213 145.573C92.8406 145.546 93.2871 145.953 93.721 146.16C93.477 146.566 93.3276 147.19 92.9741 147.343C90.0151 148.625 87.3071 150.744 83.8008 150.301C82.9741 150.197 82.1647 149.96 81.3442 149.8C80.8556 149.705 80.2584 149.424 79.8853 149.599C77.277 150.826 75.2004 149.378 73.0587 148.331C69.4235 146.554 66.3746 143.961 63.5279 141.146C62.4234 140.054 61.5402 138.72 60.6512 137.431C58.7659 134.697 56.9169 131.937 55.103 129.155C53.7319 127.052 52.4401 124.898 51.1095 122.768C50.5142 121.815 50.498 121.133 51.3585 120.116C52.8925 118.303 54.8806 117.318 56.9053 116.386C63.467 113.366 64.6543 110.12 64.1338 103.649C64.0216 102.254 63.6301 100.88 63.3577 99.4992C63.0992 98.1884 63.481 97.4801 64.9612 97.4074C68.8413 97.2168 71.0221 98.467 72.6311 101.928C72.7689 102.225 73.0144 102.471 73.3057 102.802C73.5185 103.256 73.6355 103.65 73.7401 104.21C73.7277 104.378 73.7485 104.459 73.7485 104.459C73.7485 104.459 73.7649 104.524 73.7374 104.543Z" fill="white" fill-opacity="0.7"/>
<path d="M31.772 127.924C31.7669 118.847 31.7398 109.939 31.7717 101.032C31.7794 98.8953 31.9332 96.7555 32.1133 94.6252C32.2461 93.0545 33.2031 92.0852 34.7152 91.6869C35.2039 91.5581 35.7118 91.4964 36.2139 91.4255C39.2113 91.002 40.1454 91.8292 39.93 94.8222C39.7733 96.9996 39.4309 99.1663 39.3413 101.345C39.2891 102.611 39.6255 103.889 39.6943 105.166C39.8693 108.418 40.0272 111.673 40.1181 114.928C40.1526 116.16 39.9238 117.398 39.9183 118.634C39.889 125.222 39.8362 131.81 39.9177 138.397C39.9431 140.459 40.3033 142.525 40.6231 144.572C40.7829 145.594 40.5133 146.239 39.5509 146.542C37.3479 147.234 35.1711 146.939 33.1199 146.048C32.597 145.821 32.1018 144.918 32.0613 144.296C31.868 141.325 31.8045 138.344 31.7559 135.366C31.7163 132.942 31.7631 130.518 31.772 127.924Z" fill="white" fill-opacity="0.7"/>
<path d="M78.2793 111.263C78.4125 110.73 78.4652 110.234 78.7345 109.932C80.2658 108.21 86.6641 108.73 87.3048 111.823C87.4604 112.574 87.2379 113.731 86.7281 114.2C86.2177 114.67 85.0491 114.789 84.312 114.574C82.6059 114.075 80.9646 113.327 79.3456 112.575C78.9076 112.372 78.643 111.795 78.2793 111.263Z" fill="white" fill-opacity="0.7"/>
</svg>
