<svg width="291" height="255" viewBox="0 0 291 255" fill="none" xmlns="http://www.w3.org/2000/svg">
<rect width="291" height="255" fill="black"/>
<path d="M30.224 103.636H38.248C38.3387 104.225 38.622 104.747 39.098 105.2C39.5967 105.631 40.2653 105.971 41.104 106.22C41.9427 106.447 42.9287 106.56 44.062 106.56C45.626 106.56 46.8387 106.379 47.7 106.016C48.584 105.653 49.026 105.098 49.026 104.35C49.026 103.829 48.7767 103.409 48.278 103.092C47.7793 102.752 46.7933 102.525 45.32 102.412L40.832 102.038C37.16 101.766 34.4967 100.973 32.842 99.658C31.21 98.3207 30.394 96.53 30.394 94.286C30.394 92.45 30.9267 90.92 31.992 89.696C33.0573 88.4493 34.542 87.5087 36.446 86.874C38.35 86.2393 40.594 85.922 43.178 85.922C45.6713 85.922 47.8813 86.2733 49.808 86.976C51.7573 87.6787 53.2987 88.676 54.432 89.968C55.588 91.2373 56.2227 92.722 56.336 94.422H48.312C48.2213 93.9233 47.9607 93.4927 47.53 93.13C47.122 92.7447 46.5327 92.45 45.762 92.246C44.9913 92.042 44.0733 91.94 43.008 91.94C41.6027 91.94 40.4807 92.11 39.642 92.45C38.826 92.79 38.418 93.3 38.418 93.98C38.418 94.4787 38.656 94.8867 39.132 95.204C39.6307 95.5213 40.5373 95.7367 41.852 95.85L46.782 96.258C49.23 96.4393 51.202 96.8247 52.698 97.414C54.2167 97.9807 55.316 98.7627 55.996 99.76C56.676 100.735 57.016 101.97 57.016 103.466C57.016 105.279 56.472 106.877 55.384 108.26C54.296 109.62 52.766 110.685 50.794 111.456C48.8447 112.204 46.5553 112.578 43.926 112.578C41.2287 112.578 38.86 112.204 36.82 111.456C34.78 110.708 33.182 109.665 32.026 108.328C30.87 106.968 30.2693 105.404 30.224 103.636ZM82.4995 96.462V102.038H63.5615V96.462H82.4995ZM68.9675 99.25L67.3695 109.11L64.2755 105.676H83.6895V112H59.5155L61.4195 99.25L59.5155 86.5H83.5195V92.824H64.2755L67.3695 89.39L68.9675 99.25ZM92.9965 97.516H101.905C102.902 97.516 103.673 97.2893 104.217 96.836C104.783 96.3827 105.067 95.7253 105.067 94.864C105.067 94.0027 104.783 93.3453 104.217 92.892C103.673 92.4387 102.902 92.212 101.905 92.212H91.8745L95.4445 88.54V112H87.5225V86.5H103.095C105.067 86.5 106.801 86.8513 108.297 87.554C109.793 88.2567 110.96 89.2313 111.799 90.478C112.637 91.7247 113.057 93.1867 113.057 94.864C113.057 96.496 112.637 97.9467 111.799 99.216C110.96 100.463 109.793 101.437 108.297 102.14C106.801 102.82 105.067 103.16 103.095 103.16H92.9965V97.516ZM96.3965 100.066H105.203L113.975 112H104.897L96.3965 100.066ZM131.254 108.396H127.956L137.408 86.5H145.704L134.008 112H124.998L113.302 86.5H121.768L131.254 108.396ZM147.886 86.5H155.808V112H147.886V86.5ZM189.036 101.154C188.764 103.421 187.971 105.415 186.656 107.138C185.364 108.861 183.641 110.198 181.488 111.15C179.357 112.102 176.909 112.578 174.144 112.578C171.152 112.578 168.534 112.023 166.29 110.912C164.046 109.801 162.301 108.249 161.054 106.254C159.807 104.259 159.184 101.925 159.184 99.25C159.184 96.5753 159.807 94.2407 161.054 92.246C162.301 90.2513 164.046 88.6987 166.29 87.588C168.534 86.4773 171.152 85.922 174.144 85.922C176.909 85.922 179.357 86.398 181.488 87.35C183.641 88.302 185.364 89.6393 186.656 91.362C187.971 93.062 188.764 95.0567 189.036 97.346H181.08C180.853 96.3713 180.434 95.544 179.822 94.864C179.233 94.1613 178.462 93.6287 177.51 93.266C176.558 92.8807 175.436 92.688 174.144 92.688C172.693 92.688 171.447 92.9487 170.404 93.47C169.361 93.9913 168.557 94.7507 167.99 95.748C167.423 96.7227 167.14 97.89 167.14 99.25C167.14 100.61 167.423 101.777 167.99 102.752C168.557 103.727 169.361 104.486 170.404 105.03C171.447 105.551 172.693 105.812 174.144 105.812C175.436 105.812 176.558 105.642 177.51 105.302C178.462 104.939 179.233 104.407 179.822 103.704C180.434 103.001 180.853 102.151 181.08 101.154H189.036ZM214.316 96.462V102.038H195.378V96.462H214.316ZM200.784 99.25L199.186 109.11L196.092 105.676H215.506V112H191.332L193.236 99.25L191.332 86.5H215.336V92.824H196.092L199.186 89.39L200.784 99.25ZM218.353 103.636H226.377C226.468 104.225 226.751 104.747 227.227 105.2C227.726 105.631 228.394 105.971 229.233 106.22C230.072 106.447 231.058 106.56 232.191 106.56C233.755 106.56 234.968 106.379 235.829 106.016C236.713 105.653 237.155 105.098 237.155 104.35C237.155 103.829 236.906 103.409 236.407 103.092C235.908 102.752 234.922 102.525 233.449 102.412L228.961 102.038C225.289 101.766 222.626 100.973 220.971 99.658C219.339 98.3207 218.523 96.53 218.523 94.286C218.523 92.45 219.056 90.92 220.121 89.696C221.186 88.4493 222.671 87.5087 224.575 86.874C226.479 86.2393 228.723 85.922 231.307 85.922C233.8 85.922 236.01 86.2733 237.937 86.976C239.886 87.6787 241.428 88.676 242.561 89.968C243.717 91.2373 244.352 92.722 244.465 94.422H236.441C236.35 93.9233 236.09 93.4927 235.659 93.13C235.251 92.7447 234.662 92.45 233.891 92.246C233.12 92.042 232.202 91.94 231.137 91.94C229.732 91.94 228.61 92.11 227.771 92.45C226.955 92.79 226.547 93.3 226.547 93.98C226.547 94.4787 226.785 94.8867 227.261 95.204C227.76 95.5213 228.666 95.7367 229.981 95.85L234.911 96.258C237.359 96.4393 239.331 96.8247 240.827 97.414C242.346 97.9807 243.445 98.7627 244.125 99.76C244.805 100.735 245.145 101.97 245.145 103.466C245.145 105.279 244.601 106.877 243.513 108.26C242.425 109.62 240.895 110.685 238.923 111.456C236.974 112.204 234.684 112.578 232.055 112.578C229.358 112.578 226.989 112.204 224.949 111.456C222.909 110.708 221.311 109.665 220.155 108.328C218.999 106.968 218.398 105.404 218.353 103.636ZM45.49 154.578C42.43 154.578 39.744 154.023 37.432 152.912C35.1427 151.801 33.352 150.249 32.06 148.254C30.7907 146.259 30.156 143.925 30.156 141.25C30.156 138.575 30.7907 136.241 32.06 134.246C33.352 132.251 35.1427 130.699 37.432 129.588C39.744 128.477 42.43 127.922 45.49 127.922C48.55 127.922 51.2247 128.477 53.514 129.588C55.826 130.699 57.6167 132.251 58.886 134.246C60.178 136.241 60.824 138.575 60.824 141.25C60.824 143.925 60.178 146.259 58.886 148.254C57.6167 150.249 55.826 151.801 53.514 152.912C51.2247 154.023 48.55 154.578 45.49 154.578ZM45.49 147.54C47.0087 147.54 48.312 147.291 49.4 146.792C50.5107 146.271 51.3607 145.545 51.95 144.616C52.5393 143.664 52.834 142.542 52.834 141.25C52.834 139.958 52.5393 138.847 51.95 137.918C51.3607 136.966 50.5107 136.241 49.4 135.742C48.312 135.221 47.0087 134.96 45.49 134.96C43.9713 134.96 42.6567 135.221 41.546 135.742C40.458 136.241 39.6193 136.966 39.03 137.918C38.4407 138.847 38.146 139.958 38.146 141.25C38.146 142.542 38.4407 143.664 39.03 144.616C39.6193 145.545 40.458 146.271 41.546 146.792C42.6567 147.291 43.9713 147.54 45.49 147.54ZM87.8107 148.356L85.5327 148.832V128.5H93.2167V154H83.2887L69.5867 133.668L71.8307 133.192V154H64.1807V128.5H74.4147L87.8107 148.356ZM105.851 128.5H113.773V154H105.851V128.5ZM125.707 128.5H133.629V154H125.707V128.5ZM110.305 137.51H128.903V144.514H110.305V137.51ZM152.338 154.578C149.278 154.578 146.592 154.023 144.28 152.912C141.99 151.801 140.2 150.249 138.908 148.254C137.638 146.259 137.004 143.925 137.004 141.25C137.004 138.575 137.638 136.241 138.908 134.246C140.2 132.251 141.99 130.699 144.28 129.588C146.592 128.477 149.278 127.922 152.338 127.922C155.398 127.922 158.072 128.477 160.362 129.588C162.674 130.699 164.464 132.251 165.734 134.246C167.026 136.241 167.672 138.575 167.672 141.25C167.672 143.925 167.026 146.259 165.734 148.254C164.464 150.249 162.674 151.801 160.362 152.912C158.072 154.023 155.398 154.578 152.338 154.578ZM152.338 147.54C153.856 147.54 155.16 147.291 156.248 146.792C157.358 146.271 158.208 145.545 158.798 144.616C159.387 143.664 159.682 142.542 159.682 141.25C159.682 139.958 159.387 138.847 158.798 137.918C158.208 136.966 157.358 136.241 156.248 135.742C155.16 135.221 153.856 134.96 152.338 134.96C150.819 134.96 149.504 135.221 148.394 135.742C147.306 136.241 146.467 136.966 145.878 137.918C145.288 138.847 144.994 139.958 144.994 141.25C144.994 142.542 145.288 143.664 145.878 144.616C146.467 145.545 147.306 146.271 148.394 146.792C149.504 147.291 150.819 147.54 152.338 147.54ZM209.312 128.5V154H201.764V131.424L203.328 131.594L194.114 154H186.226L176.978 131.662L178.542 131.458V154H171.028V128.5H183.234L191.632 149.818H188.742L197.072 128.5H209.312ZM235.964 138.462V144.038H217.026V138.462H235.964ZM222.432 141.25L220.834 151.11L217.74 147.676H237.154V154H212.98L214.884 141.25L212.98 128.5H236.984V134.824H217.74L220.834 131.39L222.432 141.25Z" fill="white" fill-opacity="0.7"/>
</svg>
