<svg width="291" height="255" viewBox="0 0 291 255" fill="none" xmlns="http://www.w3.org/2000/svg">
<rect width="291" height="255" fill="black"/>
<path d="M119.419 164.7C131.696 166.503 139.481 173.364 137.385 173.443C103.678 174.704 90.8672 159.833 90.8672 159.833C96.6425 163.348 107.144 162.898 119.419 164.7Z" fill="#B2B2B2" fill-opacity="0.2"/>
<path d="M105.6 147.669C126.002 152.358 128.162 160.916 128.162 160.916L98.7434 155.417C69.846 151.002 43.1943 128.2 43.1943 128.2C64.0903 140.638 85.1973 142.982 105.6 147.669Z" fill="#B2B2B2" fill-opacity="0.2"/>
<path d="M111.666 130.491C125.046 136.08 128.094 147.931 127.589 147.664C118.53 142.889 85.8201 135.631 85.8201 135.631C26.9732 122.318 3.68262 87.3018 3.68262 87.3018C24.4035 112.403 98.2869 124.903 111.666 130.491Z" fill="#B2B2B2" fill-opacity="0.2"/>
<path d="M93.5183 99.9253C121.083 106.672 128.743 136.902 128.128 135.589C122.105 122.708 82.3906 113.421 82.3906 113.421C22.4605 99.4004 0 64 0 64C19.2961 84.0663 65.9533 93.1783 93.5183 99.9253Z" fill="#B2B2B2" fill-opacity="0.2"/>
<path d="M167.101 164.7C154.824 166.503 147.04 173.364 149.135 173.443C182.843 174.704 195.653 159.833 195.653 159.833C189.878 163.348 179.377 162.898 167.101 164.7Z" fill="#B2B2B2" fill-opacity="0.2"/>
<path d="M180.919 147.669C160.517 152.358 158.357 160.916 158.357 160.916L187.776 155.417C216.674 151.002 243.325 128.2 243.325 128.2C222.429 140.638 201.322 142.982 180.919 147.669Z" fill="#B2B2B2" fill-opacity="0.2"/>
<path d="M174.855 130.491C161.475 136.08 158.427 147.931 158.931 147.664C167.99 142.889 200.7 135.631 200.7 135.631C259.547 122.318 282.838 87.3018 282.838 87.3018C262.117 112.403 188.234 124.903 174.855 130.491Z" fill="#B2B2B2" fill-opacity="0.2"/>
<path d="M193.002 99.9253C165.437 106.672 157.778 136.902 158.393 135.589C164.416 122.708 204.13 113.421 204.13 113.421C264.06 99.4004 286.521 64 286.521 64C267.224 84.0663 220.567 93.1783 193.002 99.9253Z" fill="#B2B2B2" fill-opacity="0.2"/>
<path d="M56.428 140V134.322L72.408 119.09L78.29 120.62H56.564V114.466H81.282V120.144L65.336 135.41L60.338 133.88H81.384V140H56.428ZM107.337 124.462V130.038H88.3994V124.462H107.337ZM93.8054 127.25L92.2074 137.11L89.1134 133.676H108.527V140H84.3534L86.2574 127.25L84.3534 114.5H108.357V120.824H89.1134L92.2074 117.39L93.8054 127.25ZM126.946 114.5C129.168 114.5 131.072 114.874 132.658 115.622C134.268 116.37 135.492 117.424 136.33 118.784C137.169 120.121 137.588 121.708 137.588 123.544C137.588 125.357 137.169 126.944 136.33 128.304C135.492 129.664 134.268 130.718 132.658 131.466C131.072 132.214 129.168 132.588 126.946 132.588H116.032V126.332H126.436C127.434 126.332 128.204 126.083 128.748 125.584C129.315 125.085 129.598 124.405 129.598 123.544C129.598 122.637 129.315 121.946 128.748 121.47C128.204 120.994 127.434 120.756 126.436 120.756H116.712L120.282 117.152V140H112.36V114.5H126.946ZM140.417 114.5H148.339V140H140.417V114.5ZM160.273 114.5H168.195V140H160.273V114.5ZM144.871 123.51H163.469V130.514H144.871V123.51ZM182.45 140V127.488H190.372V140H182.45ZM170.516 114.5H179.22L188.094 125.856H184.694L193.534 114.5H202.238L188.944 131.466L183.844 131.568L170.516 114.5ZM210.073 125.516H218.981C219.978 125.516 220.749 125.289 221.293 124.836C221.859 124.383 222.143 123.725 222.143 122.864C222.143 122.003 221.859 121.345 221.293 120.892C220.749 120.439 219.978 120.212 218.981 120.212H208.951L212.521 116.54V140H204.599V114.5H220.171C222.143 114.5 223.877 114.851 225.373 115.554C226.869 116.257 228.036 117.231 228.875 118.478C229.713 119.725 230.133 121.187 230.133 122.864C230.133 124.496 229.713 125.947 228.875 127.216C228.036 128.463 226.869 129.437 225.373 130.14C223.877 130.82 222.143 131.16 220.171 131.16H210.073V125.516ZM213.473 128.066H222.279L231.051 140H221.973L213.473 128.066Z" fill="white" fill-opacity="0.7"/>
</svg>
